{"glyphs":{"0":{"ha":725,"x_min":0,"x_max":0,"o":"m 361 -14 b 47 444 139 -14 47 234 b 365 932 47 732 159 932 b 678 471 586 932 678 698 b 361 -14 678 200 566 -14 m 370 34 b 539 424 488 34 539 180 b 355 885 539 688 492 885 b 186 491 230 885 186 722 b 370 34 186 227 241 34 "},"1":{"ha":478,"x_min":0,"x_max":0,"o":"m 208 810 l 195 824 l 86 770 l 68 807 l 313 932 l 327 918 l 327 54 l 340 41 l 451 41 l 451 0 l 84 0 l 84 41 l 195 41 l 208 54 "},"2":{"ha":623,"x_min":0,"x_max":0,"o":"m 27 14 b 466 625 283 275 466 442 b 283 817 466 742 401 817 b 62 651 149 817 87 723 l 35 671 b 325 933 44 748 121 933 b 565 687 485 933 565 816 b 191 118 565 479 363 278 l 205 104 l 399 104 b 528 236 494 104 528 127 l 528 260 l 569 260 l 569 0 l 27 0 "},"3":{"ha":632,"x_min":0,"x_max":0,"o":"m 578 289 b 258 -14 578 104 439 -14 b 28 73 123 -14 67 35 l 28 94 l 110 175 l 168 119 b 305 39 216 73 245 39 b 477 225 398 39 477 111 b 205 447 477 392 328 441 l 205 488 b 419 687 262 500 419 560 b 272 830 419 767 374 830 b 82 678 161 830 110 748 l 54 698 b 331 932 73 775 152 932 b 531 748 451 932 531 864 b 397 549 531 652 458 594 l 397 535 b 578 289 453 518 578 465 "},"4":{"ha":675,"x_min":0,"x_max":0,"o":"m 382 317 l 382 706 l 368 706 l 81 331 l 81 317 m 0 317 l 480 932 l 493 918 l 493 317 l 648 317 l 648 222 l 493 222 l 493 0 l 382 0 l 382 222 l 0 222 "},"5":{"ha":636,"x_min":0,"x_max":0,"o":"m 286 39 b 456 245 376 39 456 125 b 58 561 456 481 251 542 l 44 574 l 203 918 l 595 918 l 595 814 l 218 814 l 161 692 l 174 679 b 557 316 339 651 557 575 b 237 -14 557 118 418 -14 b 7 73 103 -14 47 35 l 7 94 l 90 175 l 167 100 b 286 39 207 61 239 39 "},"6":{"ha":683,"x_min":0,"x_max":0,"o":"m 344 -14 b 41 356 188 -14 41 112 b 613 948 41 703 313 917 l 631 910 b 202 525 396 879 233 704 l 216 525 b 389 602 258 568 306 602 b 643 306 523 602 643 504 b 344 -14 643 129 525 -14 m 179 343 b 355 34 179 148 251 34 b 507 277 466 34 507 144 b 325 530 507 443 446 530 b 189 447 270 530 218 495 b 179 343 183 420 179 386 "},"7":{"ha":598,"x_min":0,"x_max":0,"o":"m 241 814 b 75 693 110 814 75 808 l 75 658 l 27 658 l 27 918 l 584 918 l 598 905 l 307 0 l 183 0 l 510 801 l 497 814 l 241 814 "},"8":{"ha":637,"x_min":0,"x_max":0,"o":"m 169 755 b 344 540 169 681 207 626 b 474 739 407 579 474 636 b 316 885 474 817 419 885 b 169 755 228 885 169 835 m 41 200 b 225 456 41 335 131 397 l 225 470 b 51 712 167 511 51 593 b 321 932 51 868 189 932 b 569 746 460 932 569 872 b 386 518 569 628 480 575 l 386 504 b 596 221 499 427 596 356 b 306 -14 596 98 508 -14 b 41 200 159 -14 41 67 m 325 34 b 478 178 420 34 478 84 b 266 435 478 285 403 339 b 149 224 206 393 149 338 b 325 34 149 66 259 34 "},"9":{"ha":683,"x_min":0,"x_max":0,"o":"m 340 932 b 643 563 495 932 643 807 b 70 -29 643 222 370 8 l 52 9 b 481 394 287 46 450 215 l 468 394 b 294 317 426 350 378 317 b 41 612 161 317 41 414 b 340 932 41 789 159 932 m 176 641 b 358 388 176 475 237 388 b 494 471 413 388 466 423 b 504 575 500 498 504 533 b 328 885 504 771 432 885 b 176 641 217 885 176 774 "},"Ý":{"ha":966,"x_min":0,"x_max":0,"o":"m 317 984 l 575 1241 l 649 1164 l 358 984 m 568 47 l 673 47 l 673 0 l 297 0 l 297 47 l 402 47 l 416 61 l 416 416 l 115 857 l 101 871 l 13 871 l 13 918 l 397 918 l 397 871 l 295 871 l 281 857 l 521 493 l 534 493 b 766 857 659 694 683 740 l 752 871 l 644 871 l 644 918 l 948 918 l 948 871 l 853 871 l 839 857 l 554 416 l 554 61 "},"ý":{"ha":703,"x_min":0,"x_max":0,"o":"m 194 689 l 451 946 l 526 868 l 235 689 m 336 -62 b 87 -298 251 -268 206 -295 l 58 -298 l 44 -285 l 64 -189 l 119 -189 b 294 -47 228 -189 240 -169 l 318 8 l 100 569 l 87 582 l 20 582 l 20 623 l 326 623 l 326 582 l 247 582 l 233 569 l 368 166 l 382 166 l 532 569 l 518 582 l 437 582 l 437 623 l 703 623 l 703 582 l 621 582 l 607 569 b 429 166 557 455 466 256 l 336 -62 "},"¦":{"ha":156,"x_min":0,"x_max":0,"o":"m 102 932 l 102 545 l 54 545 l 54 932 m 102 387 l 102 0 l 54 0 l 54 387 "},"−":{"ha":706,"x_min":0,"x_max":0,"o":"m 665 435 l 41 435 l 41 483 l 665 483 "},"×":{"ha":706,"x_min":0,"x_max":0,"o":"m 557 222 l 363 416 l 344 416 l 149 222 l 116 256 l 310 450 l 310 469 l 116 663 l 149 697 l 344 502 l 363 502 l 557 696 l 590 663 l 396 469 l 396 450 l 590 256 "}," ":{"ha":344,"x_min":0,"x_max":0,"o":""},"!":{"ha":277,"x_min":0,"x_max":0,"o":"m 113 254 b 69 932 113 471 69 636 l 208 932 b 164 254 208 636 164 471 m 68 141 l 209 141 l 209 0 l 68 0 "},"\"":{"ha":261,"x_min":0,"x_max":0,"o":"m 224 680 l 173 680 l 173 932 l 224 932 m 88 680 l 37 680 l 37 932 l 88 932 "},"#":{"ha":679,"x_min":0,"x_max":0,"o":"m 146 272 l 146 285 l -3 285 l 10 332 l 162 332 l 225 564 l 225 575 l 68 575 l 81 623 l 241 623 l 325 932 l 377 932 l 296 636 l 296 623 l 476 623 l 560 932 l 611 932 l 531 636 l 531 623 l 679 623 l 665 575 l 514 575 l 451 345 l 451 332 l 607 332 l 594 285 l 435 285 l 354 -14 l 302 -14 l 380 272 l 380 285 l 201 285 l 119 -14 l 68 -14 m 280 575 l 217 345 l 217 332 l 397 332 l 460 564 l 460 575 "},"$":{"ha":702,"x_min":0,"x_max":0,"o":"m 70 702 b 312 932 70 862 190 929 l 312 1068 l 360 1068 l 360 930 b 546 864 446 921 510 885 l 559 864 l 559 918 l 607 918 l 607 596 l 559 596 l 559 636 b 360 876 559 740 493 860 l 360 559 l 502 468 b 648 213 596 407 648 332 b 360 -14 648 75 529 -14 l 360 -136 l 312 -136 l 312 -11 b 108 54 214 -1 140 38 l 95 54 l 95 -1 l 47 -1 l 47 322 l 95 322 l 95 281 b 312 43 95 177 171 58 l 312 412 l 222 473 b 70 702 140 528 70 590 m 193 755 b 299 599 193 677 238 639 l 312 599 l 312 877 b 193 755 239 872 193 827 m 360 41 b 510 178 453 46 510 96 b 373 371 510 258 478 301 l 360 371 "},"%":{"ha":748,"x_min":0,"x_max":0,"o":"m 542 878 l 529 891 l 333 891 l 320 878 b 362 737 344 847 362 798 b 162 460 362 592 268 460 b 26 655 89 460 26 526 b 253 932 26 781 113 932 l 601 932 l 615 918 l 176 -14 l 123 -14 m 248 885 b 109 639 167 885 109 757 b 183 497 109 544 133 497 b 315 754 245 497 315 609 b 248 885 315 842 294 885 m 572 460 b 701 278 658 460 701 381 b 501 -13 701 119 607 -13 b 365 183 428 -13 365 54 b 572 460 365 308 451 460 m 586 412 b 448 166 506 412 448 285 b 522 24 448 72 473 24 b 653 281 584 24 653 136 b 586 412 653 369 626 412 "},"&":{"ha":957,"x_min":0,"x_max":0,"o":"m 567 110 b 268 -14 490 37 393 -14 b 34 209 136 -14 34 60 b 268 502 34 385 206 466 b 285 511 274 505 279 508 b 240 700 254 574 240 631 b 476 932 240 816 329 932 b 647 780 560 932 647 891 b 426 524 647 668 517 576 b 531 372 453 478 489 430 l 609 268 l 622 268 b 754 505 682 350 727 443 l 740 519 l 639 519 l 639 566 l 957 566 l 957 519 l 841 519 l 820 505 b 653 209 778 422 727 308 l 705 140 b 820 64 743 89 773 64 b 926 149 865 64 893 98 l 942 111 b 749 -14 902 54 856 -14 b 592 76 686 -14 641 12 m 367 725 b 399 577 367 670 378 624 l 411 577 b 572 771 495 624 572 684 b 479 878 572 836 538 878 b 367 725 413 878 367 827 m 179 271 b 347 88 179 165 244 88 b 527 163 414 88 474 119 l 399 336 b 315 458 365 382 338 421 l 302 458 b 179 271 226 412 179 361 "},"'":{"ha":125,"x_min":0,"x_max":0,"o":"m 88 680 l 37 680 l 37 932 l 88 932 "},"(":{"ha":454,"x_min":0,"x_max":0,"o":"m 416 818 b 163 311 305 766 163 603 b 416 -196 163 20 305 -144 l 388 -233 b 61 311 255 -177 61 20 b 388 855 61 603 255 799 "},")":{"ha":454,"x_min":0,"x_max":0,"o":"m 38 -196 b 291 311 149 -144 291 20 b 38 818 291 603 149 766 l 66 855 b 393 311 199 799 393 603 b 66 -233 393 20 199 -177 "},"*":{"ha":434,"x_min":0,"x_max":0,"o":"m 252 851 l 241 842 l 241 705 l 193 705 l 193 842 l 182 851 l 62 781 l 38 822 l 158 891 l 158 905 l 37 974 l 61 1015 l 182 946 l 193 954 l 193 1091 l 241 1091 l 241 954 l 252 946 l 372 1015 l 396 974 l 277 905 l 277 891 l 397 822 l 373 781 "},"+":{"ha":705,"x_min":0,"x_max":0,"o":"m 664 436 l 390 436 l 376 422 l 376 148 l 329 148 l 329 422 l 315 436 l 41 436 l 41 483 l 315 483 l 329 497 l 329 771 l 376 771 l 376 497 l 390 483 l 664 483 "},",":{"ha":344,"x_min":0,"x_max":0,"o":"m 216 25 b 83 -207 216 -68 167 -146 l 62 -172 b 153 -14 127 -119 153 -70 l 142 0 l 68 0 l 68 141 l 216 141 l 216 25 "},"-":{"ha":420,"x_min":0,"x_max":0,"o":"m 54 345 l 366 345 l 366 277 l 54 277 "},".":{"ha":344,"x_min":0,"x_max":0,"o":"m 68 141 l 209 141 l 209 0 l 68 0 "},"/":{"ha":322,"x_min":0,"x_max":0,"o":"m 264 932 l 315 932 l 58 0 l 7 0 "},":":{"ha":344,"x_min":0,"x_max":0,"o":"m 68 623 l 209 623 l 209 482 l 68 482 m 68 141 l 209 141 l 209 0 l 68 0 "},";":{"ha":344,"x_min":0,"x_max":0,"o":"m 68 623 l 209 623 l 209 482 l 68 482 m 216 25 b 83 -207 216 -68 167 -146 l 62 -172 b 153 -14 127 -119 153 -70 l 142 0 l 68 0 l 68 141 l 216 141 l 216 25 "},"<":{"ha":706,"x_min":0,"x_max":0,"o":"m 27 453 l 27 466 l 605 767 l 605 712 l 137 466 l 137 453 l 605 207 l 605 153 "},"=":{"ha":706,"x_min":0,"x_max":0,"o":"m 618 575 l 88 575 l 88 623 l 618 623 m 618 296 l 88 296 l 88 343 l 618 343 "},">":{"ha":706,"x_min":0,"x_max":0,"o":"m 100 207 l 569 453 l 569 466 l 100 712 l 100 767 l 679 466 l 679 453 l 100 153 "},"?":{"ha":586,"x_min":0,"x_max":0,"o":"m 323 948 b 586 705 467 948 586 869 b 316 384 586 520 411 432 l 316 254 l 264 254 l 264 397 l 272 413 b 450 694 339 449 450 532 b 282 903 450 815 373 903 b 164 816 217 903 180 882 l 133 687 l 14 673 l 5 691 b 323 948 19 812 113 948 m 222 141 l 363 141 l 363 0 l 222 0 "},"@":{"ha":1099,"x_min":0,"x_max":0,"o":"m 937 -49 b 550 -164 929 -56 784 -164 b 54 270 316 -164 54 -13 b 608 769 54 573 319 769 b 1045 399 864 769 1045 606 b 691 54 1045 138 810 54 l 648 54 b 624 160 613 72 610 106 l 630 182 l 620 182 b 439 43 588 124 517 43 b 315 189 386 43 315 75 b 608 522 315 388 477 522 b 706 477 674 522 695 491 l 716 477 l 716 475 l 727 512 l 830 512 l 721 117 l 731 106 b 995 401 781 106 995 141 b 618 721 995 603 807 721 b 156 280 389 721 155 567 b 566 -117 157 34 344 -117 b 912 -10 788 -117 902 -18 l 937 -49 m 433 203 b 488 124 433 146 458 124 b 662 300 569 124 647 270 l 696 411 b 627 476 691 447 670 476 b 433 203 536 476 433 318 "},"A":{"ha":989,"x_min":0,"x_max":0,"o":"m 102 61 b 468 932 254 441 272 485 l 502 932 l 881 61 l 894 47 l 969 47 l 969 0 l 613 0 l 613 47 l 718 47 l 731 61 l 636 291 l 272 291 b 175 61 245 227 214 154 l 188 47 l 294 47 l 294 0 l 14 0 l 14 47 l 88 47 l 102 61 m 602 359 l 602 372 l 456 724 l 442 724 b 305 373 386 575 350 482 l 305 359 "},"B":{"ha":891,"x_min":0,"x_max":0,"o":"m 61 918 l 454 918 b 796 681 658 918 796 841 b 616 491 796 565 698 507 l 616 478 b 824 254 724 447 824 389 b 481 0 824 95 685 0 l 61 0 l 61 47 l 166 47 l 180 61 l 180 857 l 166 871 l 61 871 m 319 508 l 434 508 b 637 681 556 508 637 552 b 434 851 637 810 556 851 l 319 851 m 319 441 l 319 68 l 461 68 b 664 254 583 68 664 125 b 461 441 664 382 583 441 "},"C":{"ha":907,"x_min":0,"x_max":0,"o":"m 880 193 b 502 -14 843 140 750 -14 b 41 464 244 -14 41 183 b 515 932 41 742 251 932 b 776 864 681 932 769 869 l 790 864 l 790 918 l 837 918 l 837 596 l 790 596 l 790 636 b 527 878 790 769 690 878 b 200 471 315 878 200 691 b 544 54 200 254 305 54 b 849 228 748 54 819 178 l 880 193 "},"D":{"ha":1027,"x_min":0,"x_max":0,"o":"m 61 918 l 427 918 b 986 460 752 918 986 809 b 454 0 986 110 719 0 l 61 0 l 61 47 l 166 47 l 180 61 l 180 857 l 166 871 l 61 871 m 319 68 l 434 68 b 827 460 691 68 825 188 b 420 851 827 731 691 851 l 319 851 "},"E":{"ha":888,"x_min":0,"x_max":0,"o":"m 319 79 l 637 79 b 773 210 732 79 773 102 l 773 275 l 820 275 l 820 0 l 61 0 l 61 47 l 166 47 l 180 61 l 180 857 l 166 871 l 61 871 l 61 918 l 786 918 l 786 658 l 739 658 l 739 719 b 573 840 739 834 703 840 l 319 840 l 319 515 l 586 515 l 600 529 l 600 617 l 647 617 l 647 346 l 600 346 l 600 434 l 586 447 l 319 447 "},"F":{"ha":841,"x_min":0,"x_max":0,"o":"m 332 47 l 451 47 l 451 0 l 61 0 l 61 47 l 166 47 l 180 61 l 180 857 l 166 871 l 61 871 l 61 918 l 786 918 l 786 658 l 739 658 l 739 712 b 573 840 739 827 703 840 l 319 840 l 319 515 l 586 515 l 600 529 l 600 617 l 647 617 l 647 346 l 600 346 l 600 434 l 586 447 l 319 447 l 319 61 "},"G":{"ha":993,"x_min":0,"x_max":0,"o":"m 790 77 b 505 -14 752 54 674 -14 b 41 464 237 -14 41 190 b 515 932 41 763 271 932 b 776 864 681 932 765 872 l 790 864 l 790 918 l 837 918 l 837 596 l 790 596 l 790 636 b 527 878 790 759 700 878 b 200 471 322 878 200 698 b 529 41 200 234 319 41 b 752 295 685 41 752 155 l 752 386 l 739 400 l 634 400 l 634 447 l 949 447 l 949 400 l 871 400 l 857 386 l 857 0 l 803 0 l 803 77 "},"H":{"ha":1054,"x_min":0,"x_max":0,"o":"m 332 47 l 437 47 l 437 0 l 61 0 l 61 47 l 166 47 l 180 61 l 180 857 l 166 871 l 61 871 l 61 918 l 437 918 l 437 871 l 332 871 l 319 857 l 319 502 l 735 502 l 735 857 l 722 871 l 617 871 l 617 918 l 993 918 l 993 871 l 888 871 l 874 857 l 874 61 l 888 47 l 993 47 l 993 0 l 617 0 l 617 47 l 722 47 l 735 61 l 735 434 l 319 434 l 319 61 "},"I":{"ha":498,"x_min":0,"x_max":0,"o":"m 332 47 l 437 47 l 437 0 l 61 0 l 61 47 l 166 47 l 180 61 l 180 857 l 166 871 l 61 871 l 61 918 l 437 918 l 437 871 l 332 871 l 319 857 l 319 61 "},"J":{"ha":437,"x_min":0,"x_max":0,"o":"m 304 194 b 12 -130 304 -24 217 -107 l -24 -134 l -43 -96 l 0 -88 b 165 115 104 -68 165 -20 l 165 857 l 152 871 l 47 871 l 47 918 l 409 918 l 409 871 l 318 871 l 304 857 l 304 194 "},"K":{"ha":941,"x_min":0,"x_max":0,"o":"m 332 47 l 451 47 l 451 0 l 61 0 l 61 47 l 166 47 l 180 61 l 180 857 l 166 871 l 61 871 l 61 918 l 437 918 l 437 871 l 332 871 l 319 857 l 319 510 l 332 510 b 683 857 523 701 548 731 l 670 871 l 578 871 l 578 918 l 876 918 l 876 871 l 784 871 l 771 857 b 428 523 620 706 596 685 l 855 47 l 927 47 l 927 0 l 712 0 l 332 430 l 319 430 l 319 61 "},"L":{"ha":841,"x_min":0,"x_max":0,"o":"m 61 0 l 61 47 l 166 47 l 180 61 l 180 857 l 166 871 l 61 871 l 61 918 l 451 918 l 451 871 l 332 871 l 319 857 l 319 79 l 630 79 b 773 224 732 79 773 103 l 773 275 l 820 275 l 820 0 "},"M":{"ha":1278,"x_min":0,"x_max":0,"o":"m 654 206 b 947 918 774 515 803 586 l 1217 918 l 1217 871 l 1112 871 l 1098 857 l 1098 61 l 1112 47 l 1217 47 l 1217 0 l 827 0 l 827 47 l 946 47 l 959 61 l 959 758 l 946 758 b 620 -14 845 508 822 453 l 593 -14 l 258 727 l 247 727 b 244 61 251 422 249 330 l 258 47 l 376 47 l 376 0 l 54 0 l 54 47 l 159 47 l 173 61 b 173 857 167 381 167 450 l 159 871 l 61 871 l 61 918 l 325 918 l 641 206 l 654 206 "},"N":{"ha":1078,"x_min":0,"x_max":0,"o":"m 912 0 l 857 0 l 258 748 l 247 748 b 244 61 251 426 250 336 l 258 47 l 376 47 l 376 0 l 54 0 l 54 47 l 159 47 l 173 61 b 173 857 167 381 167 450 l 159 871 l 61 871 l 61 918 l 298 918 l 827 262 l 841 262 b 841 857 834 554 834 582 l 827 871 l 708 871 l 708 918 l 1030 918 l 1030 871 l 925 871 l 912 857 b 912 262 918 574 917 527 "},"O":{"ha":983,"x_min":0,"x_max":0,"o":"m 478 -14 b 41 444 220 -14 41 186 b 505 932 41 732 234 932 b 942 471 763 932 942 746 b 478 -14 942 200 749 -14 m 522 41 b 783 424 698 41 783 193 b 461 878 783 661 664 878 b 200 491 278 878 200 708 b 522 41 200 254 319 41 "},"P":{"ha":837,"x_min":0,"x_max":0,"o":"m 319 61 l 332 47 l 451 47 l 451 0 l 61 0 l 61 47 l 166 47 l 180 61 l 180 857 l 166 871 l 61 871 l 61 918 l 454 918 b 796 668 658 918 796 834 b 454 417 796 502 658 417 l 319 417 m 319 485 l 434 485 b 637 668 556 485 637 532 b 434 851 637 803 556 851 l 319 851 "},"Q":{"ha":986,"x_min":0,"x_max":0,"o":"m 478 -14 b 41 444 220 -14 41 186 b 505 932 41 732 234 932 b 942 471 763 932 942 746 b 791 107 942 325 886 195 l 896 2 l 853 -41 l 744 68 b 478 -14 670 16 580 -14 m 522 41 b 696 116 596 41 654 68 l 555 257 l 599 300 l 722 176 l 735 176 b 783 424 767 240 783 325 b 461 878 783 661 664 878 b 200 491 278 878 200 708 b 522 41 200 254 319 41 "},"R":{"ha":947,"x_min":0,"x_max":0,"o":"m 325 498 l 441 498 b 644 674 563 498 644 539 b 441 851 644 810 563 851 l 325 851 m 339 432 l 325 432 l 325 61 l 339 47 l 451 47 l 451 0 l 61 0 l 61 47 l 173 47 l 186 61 l 186 857 l 173 871 l 61 871 l 61 918 l 461 918 b 803 674 664 918 803 841 b 492 451 803 512 669 451 l 485 451 l 485 438 l 849 47 l 933 47 l 933 0 l 710 0 "},"S":{"ha":763,"x_min":0,"x_max":0,"o":"m 111 702 b 363 932 111 866 237 932 b 586 864 468 932 546 888 l 600 864 l 600 918 l 647 918 l 647 596 l 600 596 l 600 636 b 370 878 600 748 524 878 b 233 755 286 878 233 832 b 374 576 233 663 296 626 l 542 468 b 689 213 637 407 689 332 b 400 -14 689 75 569 -14 b 149 54 278 -14 186 35 l 136 54 l 136 -1 l 88 -1 l 88 322 l 136 322 l 136 281 b 385 41 136 169 224 41 b 550 178 488 41 550 91 b 409 374 550 258 519 301 l 262 473 b 111 702 181 528 111 590 "},"T":{"ha":834,"x_min":0,"x_max":0,"o":"m 501 47 l 606 47 l 606 0 l 230 0 l 230 47 l 335 47 l 348 61 l 348 840 l 241 840 b 75 712 110 840 75 827 l 75 670 l 27 670 l 27 918 l 807 918 l 807 670 l 759 670 l 759 712 b 593 840 759 827 723 840 l 487 840 l 487 61 "},"U":{"ha":986,"x_min":0,"x_max":0,"o":"m 502 -14 b 146 346 297 -14 146 67 l 146 857 l 132 871 l 27 871 l 27 918 l 403 918 l 403 871 l 298 871 l 285 857 l 285 334 b 533 61 285 121 386 61 b 780 352 678 61 780 135 b 780 857 778 671 778 712 l 766 871 l 664 871 l 664 918 l 959 918 l 959 871 l 868 871 l 854 857 b 854 373 855 683 855 580 b 502 -14 852 108 729 -14 "},"V":{"ha":948,"x_min":0,"x_max":0,"o":"m 68 871 l 0 871 l 0 918 l 370 918 l 370 871 l 248 871 l 235 857 l 510 206 l 524 206 b 773 857 628 485 649 549 l 760 871 l 665 871 l 665 918 l 935 918 l 935 871 l 860 871 l 847 857 b 494 -14 700 478 684 440 l 460 -14 l 81 857 "},"W":{"ha":1308,"x_min":0,"x_max":0,"o":"m 68 871 l 0 871 l 0 918 l 357 918 l 357 871 l 248 871 l 235 857 l 451 235 l 465 235 b 613 643 551 477 573 540 l 535 857 l 522 871 l 454 871 l 454 918 l 811 918 l 811 871 l 702 871 l 689 857 l 906 235 l 919 235 b 1133 857 1017 514 1028 549 l 1119 871 l 1024 871 l 1024 918 l 1294 918 l 1294 871 l 1219 871 l 1206 857 b 887 -14 1070 478 1058 440 l 853 -14 l 657 525 l 643 525 b 433 -14 600 412 559 307 l 399 -14 l 81 857 "},"X":{"ha":966,"x_min":0,"x_max":0,"o":"m 195 47 l 317 47 l 317 0 l 0 0 l 0 47 l 81 47 l 95 61 l 407 453 l 135 857 l 121 871 l 13 871 l 13 918 l 437 918 l 437 871 l 322 871 l 308 857 l 503 568 l 515 568 b 739 857 618 702 640 736 l 725 871 l 617 871 l 617 918 l 948 918 l 948 871 l 839 871 l 826 857 l 544 506 l 844 61 l 857 47 l 966 47 l 966 0 l 542 0 l 542 47 l 657 47 l 670 61 l 448 392 l 435 392 b 182 61 344 271 279 184 "},"Y":{"ha":966,"x_min":0,"x_max":0,"o":"m 568 47 l 673 47 l 673 0 l 297 0 l 297 47 l 402 47 l 416 61 l 416 416 l 115 857 l 101 871 l 13 871 l 13 918 l 397 918 l 397 871 l 295 871 l 281 857 l 521 493 l 534 493 b 766 857 659 694 683 740 l 752 871 l 644 871 l 644 918 l 948 918 l 948 871 l 853 871 l 839 857 l 554 416 l 554 61 "},"Z":{"ha":807,"x_min":0,"x_max":0,"o":"m 573 61 b 739 193 703 61 739 78 l 739 281 l 786 281 l 786 0 l 20 0 l 20 47 l 569 844 l 569 857 l 261 857 b 95 725 131 857 95 841 l 95 658 l 47 658 l 47 918 l 759 918 l 759 871 l 210 75 l 210 61 "},"[":{"ha":380,"x_min":0,"x_max":0,"o":"m 89 849 l 359 849 l 359 801 l 190 801 l 177 788 l 177 -165 l 190 -179 l 359 -179 l 359 -226 l 89 -226 "},"\\":{"ha":322,"x_min":0,"x_max":0,"o":"m 264 -14 l 7 932 l 58 932 l 315 -14 "},"]":{"ha":380,"x_min":0,"x_max":0,"o":"m 290 -226 l 20 -226 l 20 -179 l 189 -179 l 203 -165 l 203 788 l 189 801 l 20 801 l 20 849 l 290 849 "},"_":{"ha":699,"x_min":0,"x_max":0,"o":"m 54 -64 l 645 -64 l 645 -112 l 54 -112 "},"`":{"ha":386,"x_min":0,"x_max":0,"o":"m 27 868 l 102 946 l 359 689 l 319 689 "},"a":{"ha":619,"x_min":0,"x_max":0,"o":"m 394 474 b 275 592 394 563 336 592 b 207 549 241 592 217 582 l 183 466 l 64 453 l 56 470 b 308 636 72 569 163 636 b 518 460 435 636 524 590 l 503 142 b 541 75 501 95 508 75 b 603 122 562 75 579 96 l 619 84 b 474 -14 554 20 526 -14 b 394 79 421 -14 394 24 l 394 108 l 381 108 b 199 -14 360 68 302 -14 b 47 125 107 -14 47 44 b 394 400 47 275 221 329 l 394 474 m 380 349 b 171 166 289 308 171 264 b 254 91 171 114 199 91 b 394 174 338 91 394 167 l 394 336 "},"b":{"ha":705,"x_min":0,"x_max":0,"o":"m 157 92 l 157 0 l 106 0 l 106 818 l 93 832 l 25 804 l 7 841 l 211 932 l 225 918 l 225 529 l 239 529 b 420 636 283 587 333 636 b 658 317 549 636 658 527 b 378 -14 658 122 523 -14 b 171 92 275 -14 221 39 m 225 247 b 383 33 225 139 281 33 b 528 264 485 33 528 136 b 361 559 528 439 470 559 b 225 462 297 559 243 492 l 225 247 "},"c":{"ha":598,"x_min":0,"x_max":0,"o":"m 323 636 b 539 484 457 636 521 557 l 531 466 l 411 453 l 373 548 b 306 591 361 580 340 591 b 125 358 207 591 125 498 b 332 102 125 210 203 102 b 523 268 467 102 498 203 l 550 248 b 298 -14 541 171 478 -14 b 27 300 127 -14 27 125 b 323 636 27 458 119 636 "},"d":{"ha":691,"x_min":0,"x_max":0,"o":"m 473 94 l 460 94 b 271 -14 415 36 358 -14 b 34 306 142 -14 34 96 b 313 636 34 501 168 636 b 453 592 386 636 427 613 l 466 592 l 466 818 l 453 832 l 385 804 l 367 841 l 571 932 l 585 918 l 585 103 l 599 89 l 664 113 l 678 77 l 480 -14 l 466 0 m 331 64 b 466 154 395 64 449 124 l 466 376 b 308 590 466 470 411 590 b 163 359 207 590 163 487 b 331 64 163 184 221 64 "},"e":{"ha":605,"x_min":0,"x_max":0,"o":"m 550 248 b 298 -14 541 171 478 -14 b 27 300 127 -14 27 125 b 305 636 27 454 119 636 b 541 388 413 636 541 583 l 126 388 b 125 363 125 380 125 371 b 333 102 125 226 192 102 b 523 268 460 102 495 190 l 550 248 m 287 584 b 132 432 228 584 153 544 l 393 439 l 407 452 b 287 584 407 529 367 584 "},"f":{"ha":432,"x_min":0,"x_max":0,"o":"m 134 572 l 27 572 l 27 623 l 134 623 b 357 923 187 790 223 916 l 513 932 l 527 918 l 506 823 l 317 823 b 244 746 255 823 241 791 l 253 623 l 426 623 l 426 572 l 253 572 l 253 54 l 266 41 l 370 41 l 370 0 l 37 0 l 37 41 l 121 41 l 134 54 "},"g":{"ha":662,"x_min":0,"x_max":0,"o":"m 34 -122 l 136 -14 l 136 0 b 83 71 95 14 83 33 l 90 92 l 203 219 l 203 231 b 85 421 136 264 85 328 b 318 636 85 565 205 636 b 403 623 346 636 376 632 l 626 623 l 626 572 l 502 572 l 502 559 b 550 421 531 524 550 479 b 318 205 550 285 431 205 b 249 214 295 205 271 208 l 214 167 b 197 125 204 154 197 142 b 261 92 197 102 218 92 l 474 92 b 628 -33 554 92 628 68 b 237 -305 628 -175 428 -305 b 27 -142 61 -305 27 -216 m 211 457 b 336 249 211 315 269 249 b 424 386 397 249 424 306 b 298 592 424 518 373 592 b 211 457 246 592 211 545 m 182 -14 l 153 -61 b 133 -108 140 -81 133 -92 b 291 -197 133 -163 178 -197 b 576 -57 468 -197 576 -131 b 474 -14 576 -14 531 -14 "},"h":{"ha":702,"x_min":0,"x_max":0,"o":"m 113 818 l 100 832 l 32 804 l 14 841 l 218 932 l 232 918 l 232 532 l 245 532 b 430 636 281 580 329 636 b 591 462 514 636 591 582 l 591 54 l 605 41 l 681 41 l 681 0 l 382 0 l 382 41 l 459 41 l 472 54 l 472 441 b 371 559 472 507 443 559 b 232 469 300 559 246 493 l 232 54 l 245 41 l 322 41 l 322 0 l 16 0 l 16 41 l 100 41 l 113 54 "},"i":{"ha":357,"x_min":0,"x_max":0,"o":"m 108 918 l 243 918 l 243 784 l 108 784 m 124 521 l 110 534 l 47 508 l 29 546 l 229 636 l 243 623 l 243 54 l 256 41 l 333 41 l 333 0 l 27 0 l 27 41 l 110 41 l 124 54 "},"j":{"ha":340,"x_min":0,"x_max":0,"o":"m 109 918 l 243 918 l 243 784 l 109 784 m 232 33 b -3 -292 229 -134 92 -285 l -87 -298 l -102 -285 l -81 -189 l 29 -189 b 124 -88 93 -189 125 -181 l 116 517 l 102 530 l 39 504 l 21 542 l 231 636 l 245 623 "},"k":{"ha":652,"x_min":0,"x_max":0,"o":"m 113 818 l 100 832 l 32 804 l 14 841 l 218 932 l 232 918 l 232 376 l 245 376 b 468 569 354 478 371 491 l 454 582 l 386 582 l 386 623 l 645 623 l 645 582 l 563 582 b 336 395 456 491 432 471 l 594 54 l 614 41 l 652 41 l 652 0 l 373 0 l 373 41 l 433 41 l 447 54 l 245 332 l 232 332 l 232 54 l 245 41 l 322 41 l 322 0 l 16 0 l 16 41 l 100 41 l 113 54 "},"l":{"ha":329,"x_min":0,"x_max":0,"o":"m 113 818 l 100 832 l 32 804 l 14 841 l 218 932 l 232 918 l 232 54 l 245 41 l 322 41 l 322 0 l 16 0 l 16 41 l 100 41 l 113 54 "},"m":{"ha":1072,"x_min":0,"x_max":0,"o":"m 124 521 l 110 534 l 47 508 l 29 546 l 229 636 l 243 623 l 236 529 l 249 529 b 441 636 285 576 340 636 b 593 529 508 636 570 602 l 607 529 b 801 636 642 576 699 636 b 962 462 885 636 962 582 l 962 54 l 975 41 l 1051 41 l 1051 0 l 752 0 l 752 41 l 829 41 l 843 54 l 843 441 b 742 559 843 507 813 559 b 603 470 670 559 616 493 b 603 462 603 468 603 465 l 603 54 l 616 41 l 693 41 l 693 0 l 393 0 l 393 41 l 470 41 l 483 54 l 483 441 b 382 559 483 507 454 559 b 243 469 310 559 257 493 l 243 54 l 256 41 l 333 41 l 333 0 l 27 0 l 27 41 l 110 41 l 124 54 "},"n":{"ha":713,"x_min":0,"x_max":0,"o":"m 124 521 l 110 534 l 47 508 l 29 546 l 231 636 l 245 623 l 236 529 l 249 529 b 441 636 285 576 340 636 b 603 462 525 636 603 582 l 603 54 l 616 41 l 693 41 l 693 0 l 393 0 l 393 41 l 470 41 l 483 54 l 483 441 b 382 559 483 507 454 559 b 243 469 310 559 257 493 l 243 54 l 256 41 l 333 41 l 333 0 l 27 0 l 27 41 l 110 41 l 124 54 "},"o":{"ha":675,"x_min":0,"x_max":0,"o":"m 34 312 b 334 636 34 498 153 636 b 634 312 515 636 634 504 b 334 -14 634 129 515 -14 b 34 312 153 -14 34 123 m 170 348 b 348 34 170 171 228 34 b 498 277 455 34 498 144 b 320 589 498 443 445 589 b 170 348 222 589 170 491 "},"p":{"ha":693,"x_min":0,"x_max":0,"o":"m 102 521 l 88 534 l 25 508 l 7 546 l 209 636 l 222 623 l 214 529 l 227 529 b 416 636 272 587 329 636 b 653 317 544 636 653 527 b 373 -14 653 122 519 -14 b 234 31 300 -14 260 10 l 220 31 l 220 -244 l 234 -258 l 331 -258 l 331 -298 l 12 -298 l 12 -258 l 88 -258 l 102 -244 m 220 247 b 378 33 220 153 276 33 b 523 264 480 33 523 136 b 356 559 523 439 466 559 b 220 469 292 559 238 499 l 220 247 "},"q":{"ha":682,"x_min":0,"x_max":0,"o":"m 466 94 l 453 94 b 271 -14 408 36 358 -14 b 34 306 142 -14 34 96 b 313 636 34 501 168 636 b 521 531 416 636 470 584 l 534 531 l 534 623 l 585 623 l 585 -244 l 599 -258 l 675 -258 l 675 -298 l 356 -298 l 356 -258 l 453 -258 l 466 -244 m 331 64 b 466 161 395 64 449 131 l 466 376 b 308 590 466 484 418 590 b 163 359 207 590 163 487 b 331 64 163 184 221 64 "},"r":{"ha":471,"x_min":0,"x_max":0,"o":"m 124 521 l 110 534 l 47 508 l 29 546 l 236 636 l 249 623 l 236 505 l 249 505 b 382 631 272 563 308 624 l 444 636 l 458 623 l 437 527 l 371 527 b 243 435 285 527 258 474 l 243 54 l 256 41 l 346 41 l 346 0 l 27 0 l 27 41 l 110 41 l 124 54 "},"s":{"ha":542,"x_min":0,"x_max":0,"o":"m 398 436 l 398 478 b 264 589 398 539 342 589 b 169 507 203 589 169 559 b 278 389 169 454 204 427 b 488 159 411 321 488 271 b 285 -14 488 41 403 -14 b 125 34 197 -14 146 20 l 112 34 l 112 0 l 68 0 l 68 226 l 112 226 l 112 200 b 285 34 112 114 178 34 b 380 119 342 34 380 64 b 228 267 380 195 301 226 b 71 468 135 320 71 363 b 258 636 71 564 148 636 b 384 610 312 636 356 620 l 398 610 l 398 636 l 442 636 l 442 436 "},"t":{"ha":406,"x_min":0,"x_max":0,"o":"m 227 623 l 357 623 l 357 572 l 227 572 l 227 140 b 280 75 227 100 238 75 b 369 136 322 75 345 104 l 386 98 b 223 -14 355 60 302 -14 b 108 136 146 -14 108 33 l 108 572 l 27 572 l 14 586 l 214 764 l 227 764 "},"u":{"ha":696,"x_min":0,"x_max":0,"o":"m 316 65 b 457 155 382 65 437 119 l 457 569 l 443 582 l 370 582 l 370 623 l 575 623 l 575 103 l 589 89 l 655 113 l 669 77 l 468 -14 l 455 0 l 464 94 l 450 94 b 264 -14 409 35 351 -14 b 100 155 185 -14 100 37 l 100 569 l 87 582 l 14 582 l 14 623 l 219 623 l 219 178 b 316 65 219 113 251 65 "},"v":{"ha":624,"x_min":0,"x_max":0,"o":"m 323 -14 l 310 -14 l 60 569 l 47 582 l 0 582 l 0 623 l 270 623 l 270 582 l 206 582 l 193 569 l 344 188 l 358 188 l 486 569 l 472 582 l 407 582 l 407 623 l 624 623 l 624 582 l 575 582 l 561 569 "},"w":{"ha":963,"x_min":0,"x_max":0,"o":"m 660 -14 l 647 -14 l 483 376 l 321 -14 l 308 -14 l 62 569 l 49 582 l 0 582 l 0 623 l 270 623 l 270 582 l 209 582 l 195 569 l 342 188 l 356 188 l 449 457 l 401 569 l 388 582 l 339 582 l 339 623 l 609 623 l 609 582 l 548 582 l 534 569 l 681 188 l 695 188 l 822 569 l 809 582 l 746 582 l 746 623 l 963 623 l 963 582 l 911 582 l 897 569 "},"x":{"ha":674,"x_min":0,"x_max":0,"o":"m 180 41 l 228 41 l 228 0 l 7 0 l 7 41 l 68 41 l 82 54 l 281 306 l 102 569 l 88 582 l 27 582 l 27 623 l 319 623 l 319 582 l 258 582 l 244 569 l 357 402 l 369 402 l 481 569 l 468 582 l 420 582 l 420 623 l 641 623 l 641 582 l 576 582 l 563 569 l 390 354 l 593 54 l 607 41 l 668 41 l 668 0 l 374 0 l 374 41 l 437 41 l 451 54 l 314 256 l 302 256 l 166 54 "},"y":{"ha":703,"x_min":0,"x_max":0,"o":"m 336 -62 b 87 -298 251 -268 206 -295 l 58 -298 l 44 -285 l 64 -189 l 119 -189 b 294 -47 228 -189 240 -169 l 318 8 l 100 569 l 87 582 l 20 582 l 20 623 l 326 623 l 326 582 l 247 582 l 233 569 l 368 166 l 382 166 l 532 569 l 518 582 l 437 582 l 437 623 l 703 623 l 703 582 l 621 582 l 607 569 b 429 166 557 455 466 256 l 336 -62 "},"z":{"ha":603,"x_min":0,"x_max":0,"o":"m 394 41 b 529 220 474 41 515 98 l 569 220 l 556 0 l 34 0 l 34 14 l 392 569 l 379 582 l 257 582 b 129 429 183 582 136 552 l 88 429 l 88 623 l 557 623 l 557 609 l 201 54 l 214 41 "},"{":{"ha":462,"x_min":0,"x_max":0,"o":"m 441 -235 b 188 41 209 -235 178 -137 b 14 287 195 188 174 273 l 14 336 b 188 581 174 349 195 434 b 441 857 178 760 209 857 l 441 809 b 277 545 291 809 270 705 b 95 318 283 382 247 345 l 95 304 b 277 77 247 277 283 240 b 441 -187 270 -83 291 -187 l 441 -235 "},"|":{"ha":156,"x_min":0,"x_max":0,"o":"m 102 932 l 102 0 l 54 0 l 54 932 "},"}":{"ha":462,"x_min":0,"x_max":0,"o":"m 20 -187 b 184 77 170 -187 191 -83 b 367 304 178 240 215 277 l 367 318 b 184 545 215 345 178 382 b 20 809 191 705 170 809 l 20 857 b 274 581 252 857 283 760 b 448 336 266 434 288 349 l 448 287 b 274 41 288 273 266 188 b 20 -235 283 -137 252 -235 "},"Ä":{"ha":989,"x_min":0,"x_max":0,"o":"m 310 1214 l 430 1214 l 430 1093 l 310 1093 m 535 1214 l 655 1214 l 655 1093 l 535 1093 m 102 61 b 468 932 254 441 272 485 l 502 932 l 881 61 l 894 47 l 969 47 l 969 0 l 613 0 l 613 47 l 718 47 l 731 61 l 636 291 l 272 291 b 175 61 245 227 214 154 l 188 47 l 294 47 l 294 0 l 14 0 l 14 47 l 88 47 l 102 61 m 602 359 l 602 372 l 456 724 l 442 724 b 305 373 386 575 350 482 l 305 359 "},"Å":{"ha":989,"x_min":0,"x_max":0,"o":"m 483 1263 b 623 1125 561 1263 623 1200 b 483 986 623 1049 561 986 b 344 1125 403 986 344 1049 b 483 1263 344 1200 403 1263 m 567 1125 b 483 1208 567 1172 532 1208 b 399 1125 434 1208 399 1172 b 483 1040 399 1077 434 1040 b 567 1125 532 1040 567 1077 m 102 61 b 468 932 254 441 272 485 l 502 932 l 881 61 l 894 47 l 969 47 l 969 0 l 613 0 l 613 47 l 718 47 l 731 61 l 636 291 l 272 291 b 175 61 245 227 214 154 l 188 47 l 294 47 l 294 0 l 14 0 l 14 47 l 88 47 l 102 61 m 602 359 l 602 372 l 456 724 l 442 724 b 305 373 386 575 350 482 l 305 359 "},"Ç":{"ha":907,"x_min":0,"x_max":0,"o":"m 880 193 b 512 -14 844 140 752 -9 l 489 -73 l 503 -87 b 523 -85 510 -86 516 -85 b 636 -180 592 -85 636 -125 b 469 -298 636 -248 577 -298 b 352 -269 422 -298 384 -287 l 368 -232 b 452 -252 399 -247 426 -252 b 534 -190 507 -252 534 -229 b 474 -138 534 -155 509 -138 b 428 -146 447 -138 437 -143 l 414 -133 l 465 -12 b 41 464 225 5 41 197 b 515 932 41 742 251 932 b 776 864 681 932 769 869 l 790 864 l 790 918 l 837 918 l 837 596 l 790 596 l 790 636 b 527 878 790 769 690 878 b 200 471 315 878 200 691 b 544 54 200 254 305 54 b 849 228 748 54 819 178 l 880 193 "},"É":{"ha":888,"x_min":0,"x_max":0,"o":"m 288 984 l 546 1241 l 620 1164 l 329 984 m 319 79 l 637 79 b 773 210 732 79 773 102 l 773 275 l 820 275 l 820 0 l 61 0 l 61 47 l 166 47 l 180 61 l 180 857 l 166 871 l 61 871 l 61 918 l 786 918 l 786 658 l 739 658 l 739 719 b 573 840 739 834 703 840 l 319 840 l 319 515 l 586 515 l 600 529 l 600 617 l 647 617 l 647 346 l 600 346 l 600 434 l 586 447 l 319 447 "},"Ñ":{"ha":1078,"x_min":0,"x_max":0,"o":"m 745 1214 b 610 1066 738 1153 705 1066 b 434 1134 529 1066 495 1134 b 366 1059 387 1134 366 1093 l 326 1059 b 462 1207 333 1120 367 1207 b 636 1140 543 1207 575 1140 b 705 1214 684 1140 705 1180 l 745 1214 m 912 0 l 857 0 l 258 748 l 247 748 b 244 61 251 426 250 336 l 258 47 l 376 47 l 376 0 l 54 0 l 54 47 l 159 47 l 173 61 b 173 857 167 381 167 450 l 159 871 l 61 871 l 61 918 l 298 918 l 827 262 l 841 262 b 841 857 834 554 834 582 l 827 871 l 708 871 l 708 918 l 1030 918 l 1030 871 l 925 871 l 912 857 b 912 262 918 574 917 527 "},"Ö":{"ha":983,"x_min":0,"x_max":0,"o":"m 319 1214 l 439 1214 l 439 1093 l 319 1093 m 544 1214 l 664 1214 l 664 1093 l 544 1093 m 478 -14 b 41 444 220 -14 41 186 b 505 932 41 732 234 932 b 942 471 763 932 942 746 b 478 -14 942 200 749 -14 m 522 41 b 783 424 698 41 783 193 b 461 878 783 661 664 878 b 200 491 278 878 200 708 b 522 41 200 254 319 41 "},"Ü":{"ha":986,"x_min":0,"x_max":0,"o":"m 321 1214 l 441 1214 l 441 1093 l 321 1093 m 546 1214 l 666 1214 l 666 1093 l 546 1093 m 502 -14 b 146 346 297 -14 146 67 l 146 857 l 132 871 l 27 871 l 27 918 l 403 918 l 403 871 l 298 871 l 285 857 l 285 334 b 533 61 285 121 386 61 b 780 352 678 61 780 135 b 780 857 778 671 778 712 l 766 871 l 664 871 l 664 918 l 959 918 l 959 871 l 868 871 l 854 857 b 854 373 855 683 855 580 b 502 -14 852 108 729 -14 "},"á":{"ha":619,"x_min":0,"x_max":0,"o":"m 137 689 l 395 946 l 469 868 l 178 689 m 394 474 b 275 592 394 563 336 592 b 207 549 241 592 217 582 l 183 466 l 64 453 l 56 470 b 308 636 72 569 163 636 b 518 460 435 636 524 590 l 503 142 b 541 75 501 95 508 75 b 603 122 562 75 579 96 l 619 84 b 474 -14 554 20 526 -14 b 394 79 421 -14 394 24 l 394 108 l 381 108 b 199 -14 360 68 302 -14 b 47 125 107 -14 47 44 b 394 400 47 275 221 329 l 394 474 m 380 349 b 171 166 289 308 171 264 b 254 91 171 114 199 91 b 394 174 338 91 394 167 l 394 336 "},"à":{"ha":619,"x_min":0,"x_max":0,"o":"m 137 868 l 211 946 l 469 689 l 428 689 m 394 474 b 275 592 394 563 336 592 b 207 549 241 592 217 582 l 183 466 l 64 453 l 56 470 b 308 636 72 569 163 636 b 518 460 435 636 524 590 l 503 142 b 541 75 501 95 508 75 b 603 122 562 75 579 96 l 619 84 b 474 -14 554 20 526 -14 b 394 79 421 -14 394 24 l 394 108 l 381 108 b 199 -14 360 68 302 -14 b 47 125 107 -14 47 44 b 394 400 47 275 221 329 l 394 474 m 380 349 b 171 166 289 308 171 264 b 254 91 171 114 199 91 b 394 174 338 91 394 167 l 394 336 "},"â":{"ha":619,"x_min":0,"x_max":0,"o":"m 284 828 l 270 828 l 147 689 l 106 689 l 269 918 l 337 918 l 500 689 l 459 689 m 394 474 b 275 592 394 563 336 592 b 207 549 241 592 217 582 l 183 466 l 64 453 l 56 470 b 308 636 72 569 163 636 b 518 460 435 636 524 590 l 503 142 b 541 75 501 95 508 75 b 603 122 562 75 579 96 l 619 84 b 474 -14 554 20 526 -14 b 394 79 421 -14 394 24 l 394 108 l 381 108 b 199 -14 360 68 302 -14 b 47 125 107 -14 47 44 b 394 400 47 275 221 329 l 394 474 m 380 349 b 171 166 289 308 171 264 b 254 91 171 114 199 91 b 394 174 338 91 394 167 l 394 336 "},"ä":{"ha":619,"x_min":0,"x_max":0,"o":"m 130 918 l 251 918 l 251 798 l 130 798 m 355 918 l 476 918 l 476 798 l 355 798 m 394 474 b 275 592 394 563 336 592 b 207 549 241 592 217 582 l 183 466 l 64 453 l 56 470 b 308 636 72 569 163 636 b 518 460 435 636 524 590 l 503 142 b 541 75 501 95 508 75 b 603 122 562 75 579 96 l 619 84 b 474 -14 554 20 526 -14 b 394 79 421 -14 394 24 l 394 108 l 381 108 b 199 -14 360 68 302 -14 b 47 125 107 -14 47 44 b 394 400 47 275 221 329 l 394 474 m 380 349 b 171 166 289 308 171 264 b 254 91 171 114 199 91 b 394 174 338 91 394 167 l 394 336 "},"ã":{"ha":619,"x_min":0,"x_max":0,"o":"m 512 918 b 378 771 506 857 472 771 b 202 838 296 771 263 838 b 134 764 155 838 134 798 l 94 764 b 229 912 100 825 134 912 b 404 845 310 912 343 845 b 472 918 451 845 472 885 l 512 918 m 394 474 b 275 592 394 563 336 592 b 207 549 241 592 217 582 l 183 466 l 64 453 l 56 470 b 308 636 72 569 163 636 b 518 460 435 636 524 590 l 503 142 b 541 75 501 95 508 75 b 603 122 562 75 579 96 l 619 84 b 474 -14 554 20 526 -14 b 394 79 421 -14 394 24 l 394 108 l 381 108 b 199 -14 360 68 302 -14 b 47 125 107 -14 47 44 b 394 400 47 275 221 329 l 394 474 m 380 349 b 171 166 289 308 171 264 b 254 91 171 114 199 91 b 394 174 338 91 394 167 l 394 336 "},"å":{"ha":619,"x_min":0,"x_max":0,"o":"m 303 968 b 443 829 380 968 443 905 b 303 690 443 753 380 690 b 164 829 223 690 164 753 b 303 968 164 905 223 968 m 386 829 b 303 912 386 876 352 912 b 218 829 254 912 218 876 b 303 744 218 782 254 744 b 386 829 352 744 386 782 m 394 474 b 275 592 394 563 336 592 b 207 549 241 592 217 582 l 183 466 l 64 453 l 56 470 b 308 636 72 569 163 636 b 518 460 435 636 524 590 l 503 142 b 541 75 501 95 508 75 b 603 122 562 75 579 96 l 619 84 b 474 -14 554 20 526 -14 b 394 79 421 -14 394 24 l 394 108 l 381 108 b 199 -14 360 68 302 -14 b 47 125 107 -14 47 44 b 394 400 47 275 221 329 l 394 474 m 380 349 b 171 166 289 308 171 264 b 254 91 171 114 199 91 b 394 174 338 91 394 167 l 394 336 "},"ç":{"ha":598,"x_min":0,"x_max":0,"o":"m 323 636 b 539 484 457 636 521 557 l 531 466 l 411 453 l 373 548 b 306 591 361 580 340 591 b 125 358 207 591 125 498 b 332 102 125 210 203 102 b 523 268 467 102 498 203 l 550 248 b 306 -14 541 172 479 -9 l 283 -73 l 296 -87 b 316 -85 303 -86 309 -85 b 430 -180 385 -85 430 -125 b 262 -298 430 -248 370 -298 b 145 -269 216 -298 178 -287 l 161 -232 b 245 -252 193 -247 220 -252 b 327 -190 300 -252 327 -229 b 267 -138 327 -155 302 -138 b 221 -146 241 -138 230 -143 l 207 -133 l 259 -11 b 27 300 112 9 27 139 b 323 636 27 458 119 636 "},"é":{"ha":605,"x_min":0,"x_max":0,"o":"m 119 689 l 377 946 l 451 868 l 160 689 m 550 248 b 298 -14 541 171 478 -14 b 27 300 127 -14 27 125 b 305 636 27 454 119 636 b 541 388 413 636 541 583 l 126 388 b 125 363 125 380 125 371 b 333 102 125 226 192 102 b 523 268 460 102 495 190 l 550 248 m 287 584 b 132 432 228 584 153 544 l 393 439 l 407 452 b 287 584 407 529 367 584 "},"è":{"ha":605,"x_min":0,"x_max":0,"o":"m 119 868 l 194 946 l 451 689 l 411 689 m 550 248 b 298 -14 541 171 478 -14 b 27 300 127 -14 27 125 b 305 636 27 454 119 636 b 541 388 413 636 541 583 l 126 388 b 125 363 125 380 125 371 b 333 102 125 226 192 102 b 523 268 460 102 495 190 l 550 248 m 287 584 b 132 432 228 584 153 544 l 393 439 l 407 452 b 287 584 407 529 367 584 "},"ê":{"ha":605,"x_min":0,"x_max":0,"o":"m 266 828 l 253 828 l 129 689 l 89 689 l 251 918 l 319 918 l 482 689 l 441 689 m 550 248 b 298 -14 541 171 478 -14 b 27 300 127 -14 27 125 b 305 636 27 454 119 636 b 541 388 413 636 541 583 l 126 388 b 125 363 125 380 125 371 b 333 102 125 226 192 102 b 523 268 460 102 495 190 l 550 248 m 287 584 b 132 432 228 584 153 544 l 393 439 l 407 452 b 287 584 407 529 367 584 "},"ë":{"ha":605,"x_min":0,"x_max":0,"o":"m 113 918 l 233 918 l 233 798 l 113 798 m 338 918 l 458 918 l 458 798 l 338 798 m 550 248 b 298 -14 541 171 478 -14 b 27 300 127 -14 27 125 b 305 636 27 454 119 636 b 541 388 413 636 541 583 l 126 388 b 125 363 125 380 125 371 b 333 102 125 226 192 102 b 523 268 460 102 495 190 l 550 248 m 287 584 b 132 432 228 584 153 544 l 393 439 l 407 452 b 287 584 407 529 367 584 "},"í":{"ha":357,"x_min":0,"x_max":0,"o":"m 15 689 l 272 946 l 347 868 l 56 689 m 124 521 l 110 534 l 47 508 l 29 546 l 229 636 l 243 623 l 243 54 l 256 41 l 333 41 l 333 0 l 27 0 l 27 41 l 110 41 l 124 54 "},"ì":{"ha":357,"x_min":0,"x_max":0,"o":"m 15 868 l 89 946 l 347 689 l 306 689 m 124 521 l 110 534 l 47 508 l 29 546 l 229 636 l 243 623 l 243 54 l 256 41 l 333 41 l 333 0 l 27 0 l 27 41 l 110 41 l 124 54 "},"î":{"ha":357,"x_min":0,"x_max":0,"o":"m 162 828 l 148 828 l 25 689 l -16 689 l 147 918 l 215 918 l 378 689 l 337 689 m 124 521 l 110 534 l 47 508 l 29 546 l 229 636 l 243 623 l 243 54 l 256 41 l 333 41 l 333 0 l 27 0 l 27 41 l 110 41 l 124 54 "},"ï":{"ha":357,"x_min":0,"x_max":0,"o":"m 8 918 l 129 918 l 129 798 l 8 798 m 233 918 l 354 918 l 354 798 l 233 798 m 124 521 l 110 534 l 47 508 l 29 546 l 229 636 l 243 623 l 243 54 l 256 41 l 333 41 l 333 0 l 27 0 l 27 41 l 110 41 l 124 54 "},"ñ":{"ha":713,"x_min":0,"x_max":0,"o":"m 566 918 b 431 771 559 857 526 771 b 256 838 350 771 317 838 b 187 764 208 838 187 798 l 147 764 b 283 912 154 825 188 912 b 458 845 364 912 397 845 b 526 918 505 845 526 885 l 566 918 m 124 521 l 110 534 l 47 508 l 29 546 l 231 636 l 245 623 l 236 529 l 249 529 b 441 636 285 576 340 636 b 603 462 525 636 603 582 l 603 54 l 616 41 l 693 41 l 693 0 l 393 0 l 393 41 l 470 41 l 483 54 l 483 441 b 382 559 483 507 454 559 b 243 469 310 559 257 493 l 243 54 l 256 41 l 333 41 l 333 0 l 27 0 l 27 41 l 110 41 l 124 54 "},"ó":{"ha":675,"x_min":0,"x_max":0,"o":"m 168 689 l 426 946 l 500 868 l 209 689 m 34 312 b 334 636 34 498 153 636 b 634 312 515 636 634 504 b 334 -14 634 129 515 -14 b 34 312 153 -14 34 123 m 170 348 b 348 34 170 171 228 34 b 498 277 455 34 498 144 b 320 589 498 443 445 589 b 170 348 222 589 170 491 "},"ò":{"ha":675,"x_min":0,"x_max":0,"o":"m 168 868 l 243 946 l 500 689 l 460 689 m 34 312 b 334 636 34 498 153 636 b 634 312 515 636 634 504 b 334 -14 634 129 515 -14 b 34 312 153 -14 34 123 m 170 348 b 348 34 170 171 228 34 b 498 277 455 34 498 144 b 320 589 498 443 445 589 b 170 348 222 589 170 491 "},"ô":{"ha":675,"x_min":0,"x_max":0,"o":"m 315 828 l 302 828 l 178 689 l 138 689 l 300 918 l 368 918 l 531 689 l 490 689 m 34 312 b 334 636 34 498 153 636 b 634 312 515 636 634 504 b 334 -14 634 129 515 -14 b 34 312 153 -14 34 123 m 170 348 b 348 34 170 171 228 34 b 498 277 455 34 498 144 b 320 589 498 443 445 589 b 170 348 222 589 170 491 "},"ö":{"ha":675,"x_min":0,"x_max":0,"o":"m 161 918 l 282 918 l 282 798 l 161 798 m 386 918 l 507 918 l 507 798 l 386 798 m 34 312 b 334 636 34 498 153 636 b 634 312 515 636 634 504 b 334 -14 634 129 515 -14 b 34 312 153 -14 34 123 m 170 348 b 348 34 170 171 228 34 b 498 277 455 34 498 144 b 320 589 498 443 445 589 b 170 348 222 589 170 491 "},"õ":{"ha":675,"x_min":0,"x_max":0,"o":"m 544 918 b 409 771 537 857 504 771 b 233 838 327 771 294 838 b 165 764 186 838 165 798 l 125 764 b 260 912 132 825 165 912 b 435 845 342 912 374 845 b 504 918 483 845 504 885 l 544 918 m 34 312 b 334 636 34 498 153 636 b 634 312 515 636 634 504 b 334 -14 634 129 515 -14 b 34 312 153 -14 34 123 m 170 348 b 348 34 170 171 228 34 b 498 277 455 34 498 144 b 320 589 498 443 445 589 b 170 348 222 589 170 491 "},"ú":{"ha":696,"x_min":0,"x_max":0,"o":"m 176 689 l 434 946 l 508 868 l 217 689 m 316 65 b 457 155 382 65 437 119 l 457 569 l 443 582 l 370 582 l 370 623 l 575 623 l 575 103 l 589 89 l 655 113 l 669 77 l 468 -14 l 455 0 l 464 94 l 450 94 b 264 -14 409 35 351 -14 b 100 155 185 -14 100 37 l 100 569 l 87 582 l 14 582 l 14 623 l 219 623 l 219 178 b 316 65 219 113 251 65 "},"ù":{"ha":696,"x_min":0,"x_max":0,"o":"m 176 868 l 251 946 l 508 689 l 468 689 m 316 65 b 457 155 382 65 437 119 l 457 569 l 443 582 l 370 582 l 370 623 l 575 623 l 575 103 l 589 89 l 655 113 l 669 77 l 468 -14 l 455 0 l 464 94 l 450 94 b 264 -14 409 35 351 -14 b 100 155 185 -14 100 37 l 100 569 l 87 582 l 14 582 l 14 623 l 219 623 l 219 178 b 316 65 219 113 251 65 "},"û":{"ha":696,"x_min":0,"x_max":0,"o":"m 323 828 l 310 828 l 186 689 l 146 689 l 308 918 l 376 918 l 539 689 l 498 689 m 316 65 b 457 155 382 65 437 119 l 457 569 l 443 582 l 370 582 l 370 623 l 575 623 l 575 103 l 589 89 l 655 113 l 669 77 l 468 -14 l 455 0 l 464 94 l 450 94 b 264 -14 409 35 351 -14 b 100 155 185 -14 100 37 l 100 569 l 87 582 l 14 582 l 14 623 l 219 623 l 219 178 b 316 65 219 113 251 65 "},"ü":{"ha":696,"x_min":0,"x_max":0,"o":"m 169 918 l 290 918 l 290 798 l 169 798 m 395 918 l 515 918 l 515 798 l 395 798 m 316 65 b 457 155 382 65 437 119 l 457 569 l 443 582 l 370 582 l 370 623 l 575 623 l 575 103 l 589 89 l 655 113 l 669 77 l 468 -14 l 455 0 l 464 94 l 450 94 b 264 -14 409 35 351 -14 b 100 155 185 -14 100 37 l 100 569 l 87 582 l 14 582 l 14 623 l 219 623 l 219 178 b 316 65 219 113 251 65 "},"†":{"ha":705,"x_min":0,"x_max":0,"o":"m 664 584 l 390 584 l 376 570 l 397 0 l 308 0 l 329 570 l 315 584 l 41 584 l 41 631 l 315 631 l 329 645 l 308 918 l 397 918 l 376 645 l 390 631 l 664 631 "},"°":{"ha":390,"x_min":0,"x_max":0,"o":"m 195 932 b 363 767 294 932 363 857 b 195 602 363 676 294 602 b 27 767 94 602 27 676 b 195 932 27 857 94 932 m 305 767 b 195 887 305 837 260 887 b 85 767 130 887 85 837 b 195 646 85 697 130 646 b 305 767 260 646 305 697 "},"¢":{"ha":601,"x_min":0,"x_max":0,"o":"m 179 165 b 34 449 85 215 34 323 b 330 785 34 606 125 785 b 350 784 337 785 344 785 l 391 932 l 442 932 l 400 777 b 546 632 487 754 531 691 l 538 615 l 418 601 l 384 685 l 375 685 l 258 266 b 339 250 283 256 309 250 b 529 417 474 250 505 352 l 557 397 b 305 135 548 319 485 135 b 225 146 277 135 249 139 l 184 0 l 134 0 m 132 506 b 213 296 132 416 161 341 l 205 308 l 218 308 l 337 737 b 312 740 329 739 321 740 b 132 506 214 740 132 646 "},"£":{"ha":677,"x_min":0,"x_max":0,"o":"m 309 437 b 313 364 312 415 313 390 b 190 92 313 204 222 126 l 190 79 l 487 79 b 609 232 582 79 609 123 l 609 275 l 657 275 l 657 0 l 20 0 l 20 79 l 66 79 b 188 217 117 79 188 117 b 153 437 188 288 168 355 l 20 437 l 20 484 l 144 484 b 133 620 138 525 133 569 b 403 932 133 782 205 932 b 596 864 528 932 590 870 l 609 864 l 609 918 l 657 918 l 657 596 l 609 596 l 609 636 b 411 877 609 769 533 877 b 268 697 289 877 268 786 b 303 484 268 615 289 559 l 465 484 l 465 437 "},"§":{"ha":542,"x_min":0,"x_max":0,"o":"m 37 472 b 162 626 37 568 104 606 l 162 640 b 71 795 125 670 71 716 b 227 932 70 874 129 932 b 346 890 295 932 330 901 l 359 890 l 359 917 l 403 917 l 403 691 l 359 691 l 359 717 b 216 885 359 803 314 885 b 143 815 165 885 143 859 b 211 714 143 775 166 749 l 369 592 b 447 445 416 555 447 505 b 323 291 447 349 380 311 l 323 277 b 413 121 359 247 413 201 b 258 -14 414 40 355 -14 b 139 27 190 -14 155 16 l 125 27 l 125 0 l 81 0 l 81 226 l 125 226 l 125 200 b 264 34 125 114 171 34 b 342 95 315 34 342 58 b 273 203 342 142 319 168 l 116 325 b 37 472 68 362 37 412 m 226 356 b 304 326 252 336 271 326 b 385 405 345 326 385 352 b 331 501 385 451 363 474 l 258 561 b 180 591 232 582 214 591 b 100 512 140 591 100 565 b 153 416 100 466 121 443 "},"•":{"ha":400,"x_min":0,"x_max":0,"o":"m 201 159 b 41 319 113 159 41 231 b 201 478 41 406 113 478 b 359 319 287 478 359 406 b 201 159 359 231 287 159 "},"¶":{"ha":683,"x_min":0,"x_max":0,"o":"m 294 61 l 294 398 b 14 658 117 398 14 508 b 294 918 14 808 117 918 l 628 918 l 628 871 l 523 871 l 510 857 l 510 61 l 523 47 l 628 47 l 628 0 l 176 0 l 176 47 l 281 47 m 435 47 l 449 61 l 449 857 l 435 871 l 369 871 l 355 857 l 355 61 l 369 47 "},"ß":{"ha":691,"x_min":0,"x_max":0,"o":"m 671 153 b 498 -14 671 54 596 -14 b 376 34 420 -14 388 21 l 363 34 l 363 0 l 319 0 l 319 213 l 363 213 l 363 186 b 481 34 363 100 408 34 b 556 119 529 34 556 64 b 445 267 556 190 505 226 b 322 447 357 328 322 376 b 523 623 322 586 441 623 l 523 704 b 384 885 523 790 486 885 b 247 704 283 885 247 790 l 247 0 l 32 0 l 32 41 l 115 41 l 129 54 l 129 572 l 22 572 l 22 623 l 129 623 b 383 932 180 796 224 932 b 567 705 519 932 567 845 l 567 592 b 420 498 481 592 420 559 b 498 383 420 454 440 425 b 671 153 606 304 671 261 "},"®":{"ha":1028,"x_min":0,"x_max":0,"o":"m 41 460 b 514 932 41 733 239 932 b 987 460 788 932 987 733 b 514 -14 987 184 788 -14 b 41 460 239 -14 41 184 m 95 460 b 514 34 95 212 266 34 b 933 460 761 34 933 212 b 514 885 933 708 754 885 b 95 460 266 885 95 708 m 429 483 l 498 483 b 622 590 572 483 622 508 b 498 696 622 672 572 696 l 429 696 m 437 443 l 429 443 l 429 218 l 437 210 l 505 210 l 505 181 l 268 181 l 268 210 l 336 210 l 345 218 l 345 700 l 336 708 l 268 708 l 268 737 l 511 737 b 719 590 634 737 719 689 b 529 454 719 491 637 454 l 525 454 l 525 446 l 745 210 l 796 210 l 796 181 l 662 181 "},"©":{"ha":1028,"x_min":0,"x_max":0,"o":"m 41 460 b 514 932 41 733 239 932 b 987 460 788 932 987 733 b 514 -14 987 184 788 -14 b 41 460 239 -14 41 184 m 95 460 b 514 34 95 212 266 34 b 933 460 761 34 933 212 b 514 885 933 708 754 885 b 95 460 266 885 95 708 m 697 540 l 697 564 b 539 710 697 643 637 710 b 341 464 411 710 341 596 b 548 211 341 333 404 211 b 733 317 672 211 716 286 l 752 295 b 523 170 730 263 673 170 b 244 460 367 170 244 289 b 531 743 244 628 371 743 b 689 702 632 743 684 706 l 697 702 l 697 735 l 727 735 l 727 540 "},"™":{"ha":1002,"x_min":0,"x_max":0,"o":"m 258 484 l 311 484 l 311 460 l 118 460 l 118 484 l 171 484 l 179 491 l 179 891 l 123 891 b 38 826 57 891 38 885 l 38 787 l 14 787 l 14 932 l 531 932 l 692 565 l 700 565 b 850 932 761 725 776 761 l 988 932 l 988 908 l 935 908 l 928 901 l 928 491 l 935 484 l 988 484 l 988 460 l 788 460 l 788 484 l 849 484 l 856 491 l 856 849 l 849 849 b 682 453 798 721 786 693 l 668 453 l 496 833 l 491 833 b 489 491 493 676 492 630 l 496 484 l 557 484 l 557 460 l 392 460 l 392 484 l 445 484 l 452 491 b 451 788 450 621 449 670 l 451 826 b 366 891 451 885 432 891 l 250 891 l 250 491 "},"´":{"ha":386,"x_min":0,"x_max":0,"o":"m 27 689 l 285 946 l 359 868 l 68 689 "},"¨":{"ha":400,"x_min":0,"x_max":0,"o":"m 27 918 l 148 918 l 148 798 l 27 798 m 252 918 l 373 918 l 373 798 l 252 798 "},"Æ":{"ha":1239,"x_min":0,"x_max":0,"o":"m 102 61 b 493 858 273 422 295 469 l 480 871 l 375 871 l 375 918 l 1137 918 l 1137 658 l 1090 658 l 1090 719 b 924 840 1090 834 1054 840 l 724 840 l 724 515 l 937 515 l 951 529 l 951 617 l 998 617 l 998 346 l 951 346 l 951 434 l 937 447 l 724 447 l 724 79 l 988 79 b 1124 210 1083 79 1124 102 l 1124 275 l 1171 275 l 1171 0 l 466 0 l 466 47 l 571 47 l 585 61 l 585 346 l 320 346 b 175 61 278 262 234 174 l 188 47 l 294 47 l 294 0 l 14 0 l 14 47 l 88 47 l 102 61 m 585 413 l 585 871 l 571 871 b 360 427 478 672 418 545 l 360 413 "},"Ø":{"ha":983,"x_min":0,"x_max":0,"o":"m 218 69 b 41 444 108 151 41 287 b 505 932 41 732 234 932 b 718 882 584 932 656 914 l 790 1000 l 847 1000 l 759 857 b 942 471 873 777 942 641 b 478 -14 942 200 749 -14 b 259 43 396 -14 322 7 l 183 -81 l 126 -81 m 200 491 b 285 177 200 373 230 260 l 660 788 b 461 878 609 844 542 878 b 200 491 278 878 200 708 m 522 41 b 783 424 698 41 783 193 b 693 748 783 546 751 664 l 317 136 b 522 41 369 77 439 41 "},"±":{"ha":706,"x_min":0,"x_max":0,"o":"m 664 436 l 390 436 l 376 422 l 376 148 l 329 148 l 329 422 l 315 436 l 41 436 l 41 483 l 315 483 l 329 497 l 329 771 l 376 771 l 376 497 l 390 483 l 664 483 m 665 0 l 41 0 l 41 47 l 665 47 "},"¥":{"ha":966,"x_min":0,"x_max":0,"o":"m 568 47 l 673 47 l 673 0 l 297 0 l 297 47 l 402 47 l 416 61 l 416 344 l 207 344 l 207 392 l 416 392 l 416 416 l 340 527 l 207 527 l 207 575 l 298 575 l 298 588 l 115 857 l 101 871 l 13 871 l 13 918 l 397 918 l 397 871 l 295 871 l 281 857 l 521 493 l 534 493 b 766 857 659 694 683 740 l 752 871 l 644 871 l 644 918 l 948 918 l 948 871 l 853 871 l 839 857 l 666 588 l 666 575 l 763 575 l 763 527 l 626 527 l 554 416 l 554 392 l 763 392 l 763 344 l 554 344 l 554 61 "},"ª":{"ha":453,"x_min":0,"x_max":0,"o":"m 186 901 b 138 872 163 901 146 893 l 120 816 l 33 805 l 27 818 b 205 932 40 883 98 932 b 353 804 300 932 358 904 l 342 573 b 373 508 340 540 347 508 b 429 551 392 508 411 531 l 440 530 b 334 460 418 509 373 460 b 280 527 300 460 280 487 l 280 548 l 270 548 b 140 460 256 519 213 460 b 28 561 71 460 28 502 b 280 760 28 669 154 708 l 280 814 b 186 901 280 875 249 901 m 270 723 b 111 589 203 694 111 662 b 178 522 111 545 132 522 b 280 595 240 522 280 592 l 280 714 "},"º":{"ha":477,"x_min":0,"x_max":0,"o":"m 20 697 b 239 932 20 830 107 932 b 456 697 369 932 456 836 b 239 460 456 564 369 460 b 20 697 107 460 20 559 m 100 722 b 248 494 100 594 155 494 b 378 672 333 494 378 575 b 228 897 378 791 326 897 b 100 722 150 897 100 826 "},"æ":{"ha":948,"x_min":0,"x_max":0,"o":"m 308 636 b 474 561 382 636 439 610 l 487 561 b 662 636 529 603 586 636 b 884 388 770 636 884 583 l 496 388 b 495 363 495 380 495 371 b 690 102 495 226 548 102 b 866 268 817 102 838 190 l 893 248 b 655 -14 884 171 834 -14 b 428 134 544 -14 468 47 l 415 134 b 201 -14 393 89 329 -14 b 48 125 107 -14 48 44 b 395 400 48 275 222 329 l 395 474 b 281 592 395 549 348 592 b 207 547 243 592 218 584 l 184 466 l 64 453 l 56 470 b 308 636 73 567 161 636 m 644 584 b 501 432 584 584 519 544 l 736 439 l 750 452 b 644 584 750 529 723 584 m 171 166 b 254 91 171 114 200 91 b 411 186 338 91 402 169 b 395 300 401 221 395 260 l 395 336 l 381 349 b 171 166 289 308 171 264 "},"ø":{"ha":675,"x_min":0,"x_max":0,"o":"m 148 48 b 34 312 76 106 34 200 b 334 636 34 498 153 636 b 485 599 391 636 442 624 l 541 691 l 595 691 l 523 573 b 634 312 594 517 634 425 b 334 -14 634 129 515 -14 b 186 22 279 -14 229 -1 l 132 -68 l 77 -68 m 170 348 b 205 142 170 268 182 197 l 439 524 b 320 589 411 565 371 589 b 170 348 222 589 170 491 m 498 277 b 464 477 498 352 487 422 l 232 96 b 348 34 260 57 299 34 b 498 277 455 34 498 144 "},"¿":{"ha":586,"x_min":0,"x_max":0,"o":"m 363 769 l 363 628 l 222 628 l 222 769 m 323 -179 b 5 78 113 -179 19 -43 l 14 96 l 133 82 l 164 -47 b 282 -134 180 -113 217 -134 b 450 75 373 -134 450 -46 b 272 356 450 237 339 319 l 264 372 l 264 514 l 316 514 l 316 385 b 586 64 411 336 586 249 b 323 -179 586 -100 467 -179 "},"¡":{"ha":277,"x_min":0,"x_max":0,"o":"m 209 623 l 209 482 l 68 482 l 68 623 m 164 369 b 208 -309 164 152 208 -14 l 69 -309 b 113 369 69 -14 113 152 l 164 369 "},"«":{"ha":748,"x_min":0,"x_max":0,"o":"m 14 304 l 14 318 l 361 623 l 409 623 l 155 318 l 155 304 l 409 0 l 361 0 m 319 304 l 319 318 l 666 623 l 714 623 l 460 318 l 460 304 l 714 0 l 666 0 "},"»":{"ha":748,"x_min":0,"x_max":0,"o":"m 593 304 l 593 318 l 339 623 l 386 623 l 734 318 l 734 304 l 386 0 l 339 0 m 288 304 l 288 318 l 34 623 l 81 623 l 429 318 l 429 304 l 81 0 l 34 0 "},"…":{"ha":887,"x_min":0,"x_max":0,"o":"m 68 141 l 209 141 l 209 0 l 68 0 m 339 134 l 480 134 l 480 0 l 339 0 m 610 127 l 751 127 l 751 0 l 610 0 "},"À":{"ha":989,"x_min":0,"x_max":0,"o":"m 329 1164 l 403 1241 l 661 984 l 620 984 m 102 61 b 468 932 254 441 272 485 l 502 932 l 881 61 l 894 47 l 969 47 l 969 0 l 613 0 l 613 47 l 718 47 l 731 61 l 636 291 l 272 291 b 175 61 245 227 214 154 l 188 47 l 294 47 l 294 0 l 14 0 l 14 47 l 88 47 l 102 61 m 602 359 l 602 372 l 456 724 l 442 724 b 305 373 386 575 350 482 l 305 359 "},"Ã":{"ha":989,"x_min":0,"x_max":0,"o":"m 704 1214 b 569 1066 697 1153 664 1066 b 394 1134 488 1066 455 1134 b 325 1059 346 1134 325 1093 l 285 1059 b 421 1207 292 1120 326 1207 b 596 1140 502 1207 535 1140 b 664 1214 643 1140 664 1180 l 704 1214 m 102 61 b 468 932 254 441 272 485 l 502 932 l 881 61 l 894 47 l 969 47 l 969 0 l 613 0 l 613 47 l 718 47 l 731 61 l 636 291 l 272 291 b 175 61 245 227 214 154 l 188 47 l 294 47 l 294 0 l 14 0 l 14 47 l 88 47 l 102 61 m 602 359 l 602 372 l 456 724 l 442 724 b 305 373 386 575 350 482 l 305 359 "},"Õ":{"ha":983,"x_min":0,"x_max":0,"o":"m 701 1214 b 566 1066 694 1153 661 1066 b 390 1134 485 1066 451 1134 b 322 1059 343 1134 322 1093 l 282 1059 b 418 1207 289 1120 323 1207 b 592 1140 499 1207 531 1140 b 661 1214 640 1140 661 1180 l 701 1214 m 478 -14 b 41 444 220 -14 41 186 b 505 932 41 732 234 932 b 942 471 763 932 942 746 b 478 -14 942 200 749 -14 m 522 41 b 783 424 698 41 783 193 b 461 878 783 661 664 878 b 200 491 278 878 200 708 b 522 41 200 254 319 41 "},"Œ":{"ha":1220,"x_min":0,"x_max":0,"o":"m 552 871 l 481 871 b 200 491 278 871 200 708 b 522 47 200 254 319 47 l 552 47 l 566 61 l 566 857 m 705 79 l 969 79 b 1105 210 1064 79 1105 102 l 1105 275 l 1152 275 l 1152 0 l 478 0 b 41 444 220 0 41 186 b 498 918 41 732 234 918 l 1118 918 l 1118 658 l 1071 658 l 1071 719 b 905 840 1071 834 1035 840 l 705 840 l 705 515 l 918 515 l 932 529 l 932 617 l 979 617 l 979 346 l 932 346 l 932 434 l 918 447 l 705 447 "},"œ":{"ha":1032,"x_min":0,"x_max":0,"o":"m 977 248 b 739 -14 968 171 918 -14 b 532 98 639 -14 573 33 l 519 98 b 307 -14 472 29 399 -14 b 34 312 140 -14 34 123 b 306 636 34 495 139 636 b 526 519 403 636 479 594 l 540 519 b 746 636 582 585 644 636 b 968 388 854 636 968 583 l 580 388 b 580 363 580 380 580 371 b 774 102 580 226 632 102 b 950 268 901 102 922 190 l 977 248 m 170 348 b 321 34 170 171 214 34 b 444 277 414 34 444 144 b 293 589 444 443 405 589 b 170 348 208 589 170 491 m 728 584 b 585 432 668 584 603 544 l 820 439 l 834 452 b 728 584 834 529 807 584 "},"–":{"ha":699,"x_min":0,"x_max":0,"o":"m 54 335 l 645 335 l 645 287 l 54 287 "},"—":{"ha":1058,"x_min":0,"x_max":0,"o":"m 54 335 l 1004 335 l 1004 287 l 54 287 "},"“":{"ha":595,"x_min":0,"x_max":0,"o":"m 380 686 b 513 918 380 779 429 857 l 534 883 b 443 725 468 830 443 782 l 453 711 l 527 711 l 527 570 l 380 570 l 380 686 m 129 686 b 262 918 129 779 178 857 l 283 883 b 193 725 218 830 193 782 l 203 711 l 277 711 l 277 570 l 129 570 l 129 686 "},"”":{"ha":595,"x_min":0,"x_max":0,"o":"m 216 803 b 82 570 216 710 166 631 l 61 605 b 152 764 127 658 152 707 l 142 777 l 68 777 l 68 918 l 216 918 l 216 803 m 466 803 b 333 570 466 710 417 631 l 312 605 b 403 764 378 658 403 707 l 392 777 l 319 777 l 319 918 l 466 918 l 466 803 "},"‘":{"ha":344,"x_min":0,"x_max":0,"o":"m 129 700 b 262 932 129 792 178 871 l 283 897 b 193 738 218 844 193 795 l 203 725 l 277 725 l 277 584 l 129 584 l 129 700 "},"’":{"ha":344,"x_min":0,"x_max":0,"o":"m 216 803 b 82 570 216 710 166 631 l 61 605 b 152 764 127 658 152 707 l 142 777 l 68 777 l 68 918 l 216 918 l 216 803 "},"÷":{"ha":706,"x_min":0,"x_max":0,"o":"m 287 750 l 421 750 l 421 616 l 287 616 m 665 436 l 41 436 l 41 483 l 665 483 m 287 289 l 421 289 l 421 155 l 287 155 "},"ÿ":{"ha":703,"x_min":0,"x_max":0,"o":"m 187 918 l 308 918 l 308 798 l 187 798 m 412 918 l 533 918 l 533 798 l 412 798 m 336 -62 b 87 -298 251 -268 206 -295 l 58 -298 l 44 -285 l 64 -189 l 119 -189 b 294 -47 228 -189 240 -169 l 318 8 l 100 569 l 87 582 l 20 582 l 20 623 l 326 623 l 326 582 l 247 582 l 233 569 l 368 166 l 382 166 l 532 569 l 518 582 l 437 582 l 437 623 l 703 623 l 703 582 l 621 582 l 607 569 b 429 166 557 455 466 256 l 336 -62 "},"Ÿ":{"ha":966,"x_min":0,"x_max":0,"o":"m 310 1214 l 431 1214 l 431 1093 l 310 1093 m 535 1214 l 656 1214 l 656 1093 l 535 1093 m 568 47 l 673 47 l 673 0 l 297 0 l 297 47 l 402 47 l 416 61 l 416 416 l 115 857 l 101 871 l 13 871 l 13 918 l 397 918 l 397 871 l 295 871 l 281 857 l 521 493 l 534 493 b 766 857 659 694 683 740 l 752 871 l 644 871 l 644 918 l 948 918 l 948 871 l 853 871 l 839 857 l 554 416 l 554 61 "},"‹":{"ha":443,"x_min":0,"x_max":0,"o":"m 14 304 l 14 318 l 361 623 l 409 623 l 155 318 l 155 304 l 409 0 l 361 0 "},"›":{"ha":443,"x_min":0,"x_max":0,"o":"m 288 304 l 288 318 l 34 623 l 81 623 l 429 318 l 429 304 l 81 0 l 34 0 "},"ﬁ":{"ha":746,"x_min":0,"x_max":0,"o":"m 134 572 l 27 572 l 27 623 l 134 623 b 346 922 179 776 226 914 l 513 932 l 527 918 l 506 823 l 317 823 b 244 746 255 823 241 791 l 253 623 l 626 623 l 626 54 l 640 41 l 716 41 l 716 0 l 411 0 l 411 41 l 494 41 l 508 54 l 508 559 l 494 572 l 253 572 l 253 54 l 266 41 l 370 41 l 370 0 l 37 0 l 37 41 l 121 41 l 134 54 "},"ﬂ":{"ha":746,"x_min":0,"x_max":0,"o":"m 508 794 b 476 823 508 820 498 823 l 331 823 b 244 744 268 823 239 810 l 253 623 l 426 623 l 426 572 l 253 572 l 253 54 l 266 41 l 357 41 l 357 0 l 37 0 l 37 41 l 121 41 l 134 54 l 134 572 l 27 572 l 27 623 l 134 623 b 389 918 186 790 222 918 l 626 918 l 626 54 l 640 41 l 716 41 l 716 0 l 411 0 l 411 41 l 494 41 l 508 54 l 508 794 "},"·":{"ha":344,"x_min":0,"x_max":0,"o":"m 68 382 l 209 382 l 209 241 l 68 241 "},"‚":{"ha":344,"x_min":0,"x_max":0,"o":"m 216 25 b 82 -207 216 -68 166 -146 l 61 -172 b 152 -14 127 -119 152 -70 l 142 0 l 68 0 l 68 141 l 216 141 l 216 25 "},"„":{"ha":595,"x_min":0,"x_max":0,"o":"m 216 25 b 82 -207 216 -68 166 -146 l 61 -172 b 152 -14 127 -119 152 -70 l 142 0 l 68 0 l 68 141 l 216 141 l 216 25 m 466 25 b 333 -207 466 -68 417 -146 l 312 -172 b 403 -14 378 -119 403 -70 l 392 0 l 319 0 l 319 141 l 466 141 l 466 25 "},"Â":{"ha":989,"x_min":0,"x_max":0,"o":"m 476 1124 l 462 1124 l 339 984 l 298 984 l 461 1214 l 529 1214 l 691 984 l 651 984 m 102 61 b 468 932 254 441 272 485 l 502 932 l 881 61 l 894 47 l 969 47 l 969 0 l 613 0 l 613 47 l 718 47 l 731 61 l 636 291 l 272 291 b 175 61 245 227 214 154 l 188 47 l 294 47 l 294 0 l 14 0 l 14 47 l 88 47 l 102 61 m 602 359 l 602 372 l 456 724 l 442 724 b 305 373 386 575 350 482 l 305 359 "},"Ê":{"ha":888,"x_min":0,"x_max":0,"o":"m 435 1124 l 422 1124 l 298 984 l 258 984 l 420 1214 l 488 1214 l 651 984 l 610 984 m 319 79 l 637 79 b 773 210 732 79 773 102 l 773 275 l 820 275 l 820 0 l 61 0 l 61 47 l 166 47 l 180 61 l 180 857 l 166 871 l 61 871 l 61 918 l 786 918 l 786 658 l 739 658 l 739 719 b 573 840 739 834 703 840 l 319 840 l 319 515 l 586 515 l 600 529 l 600 617 l 647 617 l 647 346 l 600 346 l 600 434 l 586 447 l 319 447 "},"Á":{"ha":989,"x_min":0,"x_max":0,"o":"m 329 984 l 586 1241 l 661 1164 l 369 984 m 102 61 b 468 932 254 441 272 485 l 502 932 l 881 61 l 894 47 l 969 47 l 969 0 l 613 0 l 613 47 l 718 47 l 731 61 l 636 291 l 272 291 b 175 61 245 227 214 154 l 188 47 l 294 47 l 294 0 l 14 0 l 14 47 l 88 47 l 102 61 m 602 359 l 602 372 l 456 724 l 442 724 b 305 373 386 575 350 482 l 305 359 "},"Ë":{"ha":888,"x_min":0,"x_max":0,"o":"m 281 1214 l 402 1214 l 402 1093 l 281 1093 m 506 1214 l 627 1214 l 627 1093 l 506 1093 m 319 79 l 637 79 b 773 210 732 79 773 102 l 773 275 l 820 275 l 820 0 l 61 0 l 61 47 l 166 47 l 180 61 l 180 857 l 166 871 l 61 871 l 61 918 l 786 918 l 786 658 l 739 658 l 739 719 b 573 840 739 834 703 840 l 319 840 l 319 515 l 586 515 l 600 529 l 600 617 l 647 617 l 647 346 l 600 346 l 600 434 l 586 447 l 319 447 "},"È":{"ha":888,"x_min":0,"x_max":0,"o":"m 288 1164 l 363 1241 l 620 984 l 580 984 m 319 79 l 637 79 b 773 210 732 79 773 102 l 773 275 l 820 275 l 820 0 l 61 0 l 61 47 l 166 47 l 180 61 l 180 857 l 166 871 l 61 871 l 61 918 l 786 918 l 786 658 l 739 658 l 739 719 b 573 840 739 834 703 840 l 319 840 l 319 515 l 586 515 l 600 529 l 600 617 l 647 617 l 647 346 l 600 346 l 600 434 l 586 447 l 319 447 "},"Í":{"ha":498,"x_min":0,"x_max":0,"o":"m 83 984 l 341 1241 l 416 1164 l 124 984 m 332 47 l 437 47 l 437 0 l 61 0 l 61 47 l 166 47 l 180 61 l 180 857 l 166 871 l 61 871 l 61 918 l 437 918 l 437 871 l 332 871 l 319 857 l 319 61 "},"Î":{"ha":498,"x_min":0,"x_max":0,"o":"m 230 1124 l 217 1124 l 94 984 l 53 984 l 216 1214 l 283 1214 l 446 984 l 405 984 m 332 47 l 437 47 l 437 0 l 61 0 l 61 47 l 166 47 l 180 61 l 180 857 l 166 871 l 61 871 l 61 918 l 437 918 l 437 871 l 332 871 l 319 857 l 319 61 "},"Ï":{"ha":498,"x_min":0,"x_max":0,"o":"m 77 1214 l 197 1214 l 197 1093 l 77 1093 m 302 1214 l 422 1214 l 422 1093 l 302 1093 m 332 47 l 437 47 l 437 0 l 61 0 l 61 47 l 166 47 l 180 61 l 180 857 l 166 871 l 61 871 l 61 918 l 437 918 l 437 871 l 332 871 l 319 857 l 319 61 "},"Ì":{"ha":498,"x_min":0,"x_max":0,"o":"m 83 1164 l 158 1241 l 416 984 l 375 984 m 332 47 l 437 47 l 437 0 l 61 0 l 61 47 l 166 47 l 180 61 l 180 857 l 166 871 l 61 871 l 61 918 l 437 918 l 437 871 l 332 871 l 319 857 l 319 61 "},"Ó":{"ha":983,"x_min":0,"x_max":0,"o":"m 325 984 l 583 1241 l 658 1164 l 366 984 m 478 -14 b 41 444 220 -14 41 186 b 505 932 41 732 234 932 b 942 471 763 932 942 746 b 478 -14 942 200 749 -14 m 522 41 b 783 424 698 41 783 193 b 461 878 783 661 664 878 b 200 491 278 878 200 708 b 522 41 200 254 319 41 "},"Ô":{"ha":983,"x_min":0,"x_max":0,"o":"m 472 1124 l 459 1124 l 336 984 l 295 984 l 458 1214 l 525 1214 l 688 984 l 647 984 m 478 -14 b 41 444 220 -14 41 186 b 505 932 41 732 234 932 b 942 471 763 932 942 746 b 478 -14 942 200 749 -14 m 522 41 b 783 424 698 41 783 193 b 461 878 783 661 664 878 b 200 491 278 878 200 708 b 522 41 200 254 319 41 "},"Ò":{"ha":983,"x_min":0,"x_max":0,"o":"m 325 1164 l 400 1241 l 658 984 l 617 984 m 478 -14 b 41 444 220 -14 41 186 b 505 932 41 732 234 932 b 942 471 763 932 942 746 b 478 -14 942 200 749 -14 m 522 41 b 783 424 698 41 783 193 b 461 878 783 661 664 878 b 200 491 278 878 200 708 b 522 41 200 254 319 41 "},"Ú":{"ha":986,"x_min":0,"x_max":0,"o":"m 327 984 l 585 1241 l 660 1164 l 368 984 m 502 -14 b 146 346 297 -14 146 67 l 146 857 l 132 871 l 27 871 l 27 918 l 403 918 l 403 871 l 298 871 l 285 857 l 285 334 b 533 61 285 121 386 61 b 780 352 678 61 780 135 b 780 857 778 671 778 712 l 766 871 l 664 871 l 664 918 l 959 918 l 959 871 l 868 871 l 854 857 b 854 373 855 683 855 580 b 502 -14 852 108 729 -14 "},"Û":{"ha":986,"x_min":0,"x_max":0,"o":"m 474 1124 l 461 1124 l 338 984 l 297 984 l 460 1214 l 527 1214 l 690 984 l 649 984 m 502 -14 b 146 346 297 -14 146 67 l 146 857 l 132 871 l 27 871 l 27 918 l 403 918 l 403 871 l 298 871 l 285 857 l 285 334 b 533 61 285 121 386 61 b 780 352 678 61 780 135 b 780 857 778 671 778 712 l 766 871 l 664 871 l 664 918 l 959 918 l 959 871 l 868 871 l 854 857 b 854 373 855 683 855 580 b 502 -14 852 108 729 -14 "},"Ù":{"ha":986,"x_min":0,"x_max":0,"o":"m 327 1164 l 402 1241 l 660 984 l 619 984 m 502 -14 b 146 346 297 -14 146 67 l 146 857 l 132 871 l 27 871 l 27 918 l 403 918 l 403 871 l 298 871 l 285 857 l 285 334 b 533 61 285 121 386 61 b 780 352 678 61 780 135 b 780 857 778 671 778 712 l 766 871 l 664 871 l 664 918 l 959 918 l 959 871 l 868 871 l 854 857 b 854 373 855 683 855 580 b 502 -14 852 108 729 -14 "},"ı":{"ha":357,"x_min":0,"x_max":0,"o":"m 124 521 l 110 534 l 47 508 l 29 546 l 229 636 l 243 623 l 243 54 l 256 41 l 333 41 l 333 0 l 27 0 l 27 41 l 110 41 l 124 54 "},"ˆ":{"ha":447,"x_min":0,"x_max":0,"o":"m 205 828 l 191 828 l 68 689 l 27 689 l 190 918 l 258 918 l 420 689 l 380 689 "},"˜":{"ha":473,"x_min":0,"x_max":0,"o":"m 446 918 b 311 771 439 857 406 771 b 136 838 230 771 197 838 b 67 764 88 838 67 798 l 27 764 b 163 912 34 825 68 912 b 338 845 244 912 277 845 b 406 918 385 845 406 885 l 446 918 "},"˚":{"ha":333,"x_min":0,"x_max":0,"o":"m 166 968 b 306 829 243 968 306 905 b 166 690 306 753 243 690 b 27 829 86 690 27 753 b 166 968 27 905 86 968 m 249 829 b 166 912 249 876 215 912 b 81 829 117 912 81 876 b 166 744 81 782 117 744 b 249 829 215 744 249 782 "},"¸":{"ha":339,"x_min":0,"x_max":0,"o":"m 165 -73 l 178 -87 b 198 -85 185 -86 191 -85 b 312 -180 267 -85 312 -125 b 144 -298 312 -248 252 -298 b 27 -269 98 -298 60 -287 l 43 -232 b 127 -252 75 -247 102 -252 b 209 -190 182 -252 209 -229 b 149 -138 209 -155 184 -138 b 103 -146 123 -138 113 -143 l 89 -133 l 141 -11 l 188 -11 "}," ":{"ha":136,"x_min":0,"x_max":0,"o":""},"№":{"ha":1499,"x_min":0,"x_max":0,"o":"m 912 0 l 857 0 l 258 748 l 247 748 b 244 61 251 426 250 336 l 258 47 l 376 47 l 376 0 l 54 0 l 54 47 l 159 47 l 173 61 b 173 857 167 381 167 450 l 159 871 l 61 871 l 61 918 l 298 918 l 827 262 l 841 262 b 841 857 834 554 834 582 l 827 871 l 708 871 l 708 918 l 1030 918 l 1030 871 l 925 871 l 912 857 b 912 262 918 574 917 527 m 1022 534 b 1241 769 1022 667 1109 769 b 1458 534 1371 769 1458 672 b 1241 296 1458 401 1371 296 b 1022 534 1109 296 1022 396 m 1101 559 b 1250 331 1101 430 1156 331 b 1380 508 1335 331 1380 411 b 1230 734 1380 628 1328 734 b 1101 559 1152 734 1101 662 m 1458 0 l 1022 0 l 1022 47 l 1458 47 "},"€":{"ha":1001,"x_min":0,"x_max":0,"o":"m 906 94 b 599 -14 831 27 721 -14 b 140 344 366 -14 188 134 l 14 344 l 34 392 l 130 392 l 130 405 b 127 459 129 420 127 436 b 131 514 127 482 129 498 l 131 527 l 14 527 l 34 575 l 141 575 b 606 932 190 784 373 932 b 900 841 752 932 838 888 l 900 766 b 599 871 828 826 744 871 b 205 588 414 871 256 759 l 205 575 l 834 575 l 813 527 l 192 527 b 187 459 188 506 187 483 b 192 392 187 436 188 413 l 782 392 l 762 344 l 205 344 l 205 331 b 599 47 254 160 415 47 b 906 168 743 47 828 93 l 906 94 "},"①":{"ha":1028,"x_min":0,"x_max":0,"o":"m 41 460 b 514 932 41 733 239 932 b 987 460 788 932 987 733 b 514 -14 987 184 788 -14 b 41 460 239 -14 41 184 m 95 460 b 514 34 95 212 266 34 b 933 460 761 34 933 212 b 514 885 933 708 754 885 b 95 460 266 885 95 708 m 483 669 l 475 677 l 410 645 l 399 668 l 546 742 l 554 734 l 554 216 l 563 207 l 629 207 l 629 183 l 409 183 l 409 207 l 475 207 l 483 216 "},"②":{"ha":1028,"x_min":0,"x_max":0,"o":"m 41 460 b 514 932 41 733 239 932 b 987 460 788 932 987 733 b 514 -14 987 184 788 -14 b 41 460 239 -14 41 184 m 95 460 b 514 34 95 212 266 34 b 933 460 761 34 933 212 b 514 885 933 708 754 885 b 95 460 266 885 95 708 m 351 191 b 615 558 505 348 615 448 b 505 674 615 628 575 674 b 373 573 424 674 387 617 l 356 586 b 530 743 361 632 407 743 b 674 595 626 743 674 672 b 449 254 674 470 552 350 l 450 254 l 458 245 l 575 245 b 652 325 632 245 652 260 l 652 339 l 676 339 l 676 183 l 351 183 "},"③":{"ha":1028,"x_min":0,"x_max":0,"o":"m 41 460 b 514 932 41 733 239 932 b 987 460 788 932 987 733 b 514 -14 987 184 788 -14 b 41 460 239 -14 41 184 m 95 460 b 514 34 95 212 266 34 b 933 460 761 34 933 212 b 514 885 933 708 754 885 b 95 460 266 885 95 708 m 679 357 b 487 175 679 245 595 175 b 349 227 406 175 372 204 l 349 239 l 399 288 l 433 255 b 515 207 462 227 479 207 b 618 318 571 207 618 249 b 456 451 618 418 529 447 l 456 476 b 584 595 489 483 584 519 b 495 681 584 643 557 681 b 382 590 429 681 398 632 l 365 602 b 531 742 376 648 423 742 b 651 632 603 742 651 701 b 571 512 651 574 607 540 l 571 504 b 679 357 604 493 679 462 "},"④":{"ha":1028,"x_min":0,"x_max":0,"o":"m 41 460 b 514 932 41 733 239 932 b 987 460 788 932 987 733 b 514 -14 987 184 788 -14 b 41 460 239 -14 41 184 m 95 460 b 514 34 95 212 266 34 b 933 460 761 34 933 212 b 514 885 933 708 754 885 b 95 460 266 885 95 708 m 528 373 l 528 607 l 520 607 l 348 382 l 348 373 m 299 373 l 587 742 l 595 734 l 595 373 l 688 373 l 688 317 l 595 317 l 595 183 l 528 183 l 528 317 l 299 317 "},"⑤":{"ha":1028,"x_min":0,"x_max":0,"o":"m 41 460 b 514 932 41 733 239 932 b 987 460 788 932 987 733 b 514 -14 987 184 788 -14 b 41 460 239 -14 41 184 m 95 460 b 514 34 95 212 266 34 b 933 460 761 34 933 212 b 514 885 933 708 754 885 b 95 460 266 885 95 708 m 505 207 b 607 330 559 207 607 258 b 367 519 607 472 483 508 l 359 527 l 455 734 l 690 734 l 690 672 l 464 672 l 430 599 l 438 590 b 668 373 536 573 668 528 b 475 175 668 254 584 175 b 338 227 395 175 361 204 l 338 239 l 387 288 l 433 243 b 505 207 458 220 477 207 "},"⑥":{"ha":1028,"x_min":0,"x_max":0,"o":"m 41 460 b 514 932 41 733 239 932 b 987 460 788 932 987 733 b 514 -14 987 184 788 -14 b 41 460 239 -14 41 184 m 95 460 b 514 34 95 212 266 34 b 933 460 761 34 933 212 b 514 885 933 708 754 885 b 95 460 266 885 95 708 m 495 175 b 313 397 401 175 313 250 b 656 752 313 605 477 733 l 667 729 b 409 498 526 710 428 605 l 418 498 b 522 544 443 524 472 544 b 674 367 602 544 674 485 b 495 175 674 261 603 175 m 396 389 b 502 203 396 272 439 203 b 592 349 568 203 592 270 b 484 501 592 449 556 501 b 402 451 451 501 419 481 b 396 389 399 435 396 415 "},"⑦":{"ha":1028,"x_min":0,"x_max":0,"o":"m 41 460 b 514 932 41 733 239 932 b 987 460 788 932 987 733 b 514 -14 987 184 788 -14 b 41 460 239 -14 41 184 m 95 460 b 514 34 95 212 266 34 b 933 460 761 34 933 212 b 514 885 933 708 754 885 b 95 460 266 885 95 708 m 470 672 b 371 599 392 672 371 668 l 371 578 l 342 578 l 342 734 l 677 734 l 685 726 l 510 183 l 436 183 l 632 664 l 624 672 l 470 672 "},"⑧":{"ha":1028,"x_min":0,"x_max":0,"o":"m 41 460 b 514 932 41 733 239 932 b 987 460 788 932 987 733 b 514 -14 987 184 788 -14 b 41 460 239 -14 41 184 m 95 460 b 514 34 95 212 266 34 b 933 460 761 34 933 212 b 514 885 933 708 754 885 b 95 460 266 885 95 708 m 424 636 b 529 507 424 592 447 559 b 607 626 567 530 607 565 b 512 714 607 674 574 714 b 424 636 460 714 424 684 m 347 303 b 458 457 347 384 401 422 l 458 465 b 353 610 423 489 353 539 b 515 742 353 704 436 742 b 664 630 599 742 664 706 b 554 493 664 560 611 528 l 554 485 b 681 316 622 439 681 397 b 506 175 681 241 627 175 b 347 303 418 175 347 223 m 518 203 b 609 289 574 203 609 233 b 483 444 609 354 564 386 b 412 318 446 419 412 386 b 518 203 412 222 478 203 "},"⑨":{"ha":1028,"x_min":0,"x_max":0,"o":"m 41 460 b 514 932 41 733 239 932 b 987 460 788 932 987 733 b 514 -14 987 184 788 -14 b 41 460 239 -14 41 184 m 95 460 b 514 34 95 212 266 34 b 933 460 761 34 933 212 b 514 885 933 708 754 885 b 95 460 266 885 95 708 m 533 742 b 714 521 626 742 714 667 b 371 165 714 317 551 188 l 361 188 b 618 420 502 211 599 312 l 610 420 b 506 373 584 393 556 373 b 354 550 426 373 354 432 b 533 742 354 656 424 742 m 435 568 b 544 416 435 468 472 416 b 626 466 577 416 609 437 b 632 528 629 482 632 502 b 526 714 632 645 588 714 b 435 568 460 714 435 647 "},"⑩":{"ha":1028,"x_min":0,"x_max":0,"o":"m 41 460 b 514 932 41 733 239 932 b 987 460 788 932 987 733 b 514 -14 987 184 788 -14 b 41 460 239 -14 41 184 m 95 460 b 514 34 95 212 266 34 b 933 460 761 34 933 212 b 514 885 933 708 754 885 b 95 460 266 885 95 708 m 327 669 l 319 677 l 254 645 l 243 668 l 390 742 l 399 734 l 399 216 l 407 207 l 473 207 l 473 183 l 253 183 l 253 207 l 319 207 l 327 216 m 628 175 b 440 449 495 175 440 323 b 630 742 440 622 507 742 b 818 466 763 742 818 602 b 628 175 818 303 751 175 m 634 203 b 735 437 704 203 735 291 b 624 714 735 596 707 714 b 523 478 550 714 523 616 b 634 203 523 319 557 203 "},"ﬀ":{"ha":805,"x_min":0,"x_max":0,"o":"m 134 572 l 27 572 l 27 623 l 134 623 b 357 923 187 790 223 916 l 513 932 l 527 918 l 506 823 l 317 823 b 244 746 255 823 241 791 l 253 623 l 507 623 b 729 923 560 790 596 916 l 886 932 l 899 918 l 879 823 l 690 823 b 617 746 628 823 613 791 l 626 623 l 799 623 l 799 572 l 626 572 l 626 54 l 639 41 l 743 41 l 743 0 l 410 0 l 410 41 l 493 41 l 507 54 l 507 572 l 253 572 l 253 54 l 266 41 l 370 41 l 370 0 l 37 0 l 37 41 l 121 41 l 134 54 "},"ﬃ":{"ha":1119,"x_min":0,"x_max":0,"o":"m 134 572 l 27 572 l 27 623 l 134 623 b 357 923 187 790 223 916 l 513 932 l 527 918 l 506 823 l 317 823 b 244 746 255 823 241 791 l 253 623 l 508 623 b 719 922 552 776 599 914 l 887 932 l 900 918 l 880 823 l 691 823 b 618 746 628 823 614 791 l 626 623 l 1000 623 l 1000 54 l 1013 41 l 1090 41 l 1090 0 l 784 0 l 784 41 l 868 41 l 881 54 l 881 559 l 868 572 l 626 572 l 626 54 l 640 41 l 744 41 l 744 0 l 411 0 l 411 41 l 494 41 l 508 54 l 508 572 l 253 572 l 253 54 l 266 41 l 370 41 l 370 0 l 37 0 l 37 41 l 121 41 l 134 54 "},"ﬄ":{"ha":1119,"x_min":0,"x_max":0,"o":"m 134 572 l 27 572 l 27 623 l 134 623 b 357 923 187 790 223 916 l 513 932 l 527 918 l 506 823 l 317 823 b 244 746 255 823 241 791 l 253 623 l 508 623 b 763 918 559 790 595 918 l 1000 918 l 1000 54 l 1013 41 l 1090 41 l 1090 0 l 784 0 l 784 41 l 868 41 l 881 54 l 881 794 b 849 823 881 820 872 823 l 704 823 b 618 744 642 823 613 810 l 626 623 l 800 623 l 800 572 l 626 572 l 626 54 l 640 41 l 730 41 l 730 0 l 411 0 l 411 41 l 494 41 l 508 54 l 508 572 l 253 572 l 253 54 l 266 41 l 370 41 l 370 0 l 37 0 l 37 41 l 121 41 l 134 54 "},"☼":{"ha":1083,"x_min":0,"x_max":0,"o":"m 518 826 l 565 826 l 565 684 l 518 684 m 889 692 l 923 659 l 822 558 l 788 592 m 296 591 l 262 557 l 161 658 l 195 691 m 542 -14 b 217 312 357 -14 217 127 b 542 636 217 497 357 636 b 866 312 727 636 866 497 b 542 -14 866 127 727 -14 m 542 34 b 820 312 700 34 820 153 b 542 589 820 470 700 589 b 265 312 383 589 265 470 b 542 34 265 153 383 34 m 1056 335 l 1056 287 l 914 287 l 914 335 m 169 335 l 169 287 l 27 287 l 27 335 m 262 65 l 296 31 l 195 -69 l 161 -36 m 922 -36 l 889 -69 l 788 31 l 822 65 m 518 -61 l 565 -61 l 565 -203 l 518 -203 "},"⛅":{"ha":1460,"x_min":0,"x_max":0,"o":"m 922 891 l 969 891 l 969 748 l 922 748 m 1293 756 l 1327 723 l 1226 622 l 1192 656 m 700 655 l 666 622 l 565 723 l 599 756 m 1215 189 b 1198 254 1212 218 1207 235 b 1223 376 1216 291 1223 331 b 945 659 1223 535 1104 659 b 776 592 854 659 805 624 b 694 565 746 586 725 582 b 950 701 750 649 830 701 b 1270 376 1135 701 1270 561 b 1215 189 1270 306 1250 241 m 986 393 b 1186 164 1105 376 1186 280 b 955 -68 1186 35 1082 -68 l 191 -68 b 27 96 86 -68 27 7 b 211 259 27 185 100 259 l 240 259 l 247 266 b 486 469 264 392 368 469 b 618 427 535 469 583 458 l 625 434 b 803 569 636 519 712 569 b 986 393 898 569 979 496 m 267 197 b 191 221 244 214 222 221 b 75 96 119 221 75 167 b 191 -20 75 24 119 -20 l 955 -20 b 1138 164 1062 -20 1138 54 b 955 351 1138 275 1063 351 b 754 164 845 351 754 276 l 707 164 b 939 393 707 290 819 386 l 946 400 b 803 523 935 479 881 523 b 651 385 719 523 651 469 l 651 365 l 645 358 b 486 424 597 397 544 424 b 274 204 376 424 278 341 m 1460 399 l 1460 352 l 1318 352 l 1318 399 m 1326 28 l 1293 -5 l 1192 96 l 1226 129 "},"☁":{"ha":1213,"x_min":0,"x_max":0,"o":"m 986 461 b 1186 232 1105 443 1186 348 b 955 0 1186 102 1082 0 l 191 0 b 27 164 86 0 27 75 b 211 327 27 253 100 327 l 240 327 l 247 333 b 486 537 264 460 368 537 b 618 495 535 537 583 525 l 625 502 b 803 636 636 586 712 636 b 986 461 898 636 979 564 m 267 265 b 191 289 244 282 222 289 b 75 164 119 289 75 235 b 191 47 75 92 119 47 l 955 47 b 1138 232 1062 47 1138 122 b 955 419 1138 342 1063 419 b 754 232 845 419 754 344 l 707 232 b 939 461 707 358 819 454 l 946 468 b 803 591 935 546 881 591 b 651 453 719 591 651 537 l 651 432 l 645 426 b 486 492 597 465 544 492 b 274 272 376 492 278 409 "},"☂":{"ha":1213,"x_min":0,"x_max":0,"o":"m 986 593 b 1186 364 1105 575 1186 480 b 955 132 1186 235 1082 132 l 191 132 b 27 296 86 132 27 207 b 211 459 27 385 100 459 l 240 459 l 247 466 b 486 669 264 592 368 669 b 618 627 535 669 583 658 l 625 634 b 803 769 636 719 712 769 b 986 593 898 769 979 696 m 267 397 b 191 421 244 414 222 421 b 75 296 119 421 75 367 b 191 180 75 224 119 180 l 955 180 b 1138 364 1062 180 1138 254 b 955 551 1138 474 1063 551 b 754 364 845 551 754 476 l 707 364 b 939 593 707 490 819 586 l 946 600 b 803 723 935 679 881 723 b 651 585 719 723 651 669 l 651 565 l 645 558 b 486 624 597 597 544 624 b 274 404 376 624 278 541 m 232 85 l 286 85 l 150 -111 l 96 -111 m 574 85 l 628 85 l 493 -111 l 439 -111 m 916 85 l 971 85 l 835 -111 l 781 -111 "},"☐":{"ha":677,"x_min":0,"x_max":0,"o":"m 27 0 l 27 623 l 650 623 l 650 0 m 603 575 l 75 575 l 75 47 l 603 47 "},"☑":{"ha":677,"x_min":0,"x_max":0,"o":"m 27 0 l 27 623 l 650 623 l 650 0 m 603 575 l 75 575 l 75 47 l 603 47 m 272 156 l 286 156 l 494 527 l 555 527 l 302 95 l 254 95 l 122 310 l 183 310 "}}}
